<?xml version="1.0" encoding="UTF-8" standalone="no"?>
<svg
   xmlns:dc="http://purl.org/dc/elements/1.1/"
   xmlns:cc="http://creativecommons.org/ns#"
   xmlns:rdf="http://www.w3.org/1999/02/22-rdf-syntax-ns#"
   xmlns:svg="http://www.w3.org/2000/svg"
   xmlns="http://www.w3.org/2000/svg"
   xmlns:sodipodi="http://sodipodi.sourceforge.net/DTD/sodipodi-0.dtd"
   xmlns:inkscape="http://www.inkscape.org/namespaces/inkscape"
   width="144.04857"
   height="278.92581"
   viewBox="0 0 38.11285 73.799121"
   version="1.1"
   id="svg2031"
   inkscape:version="1.0.1 (3bc2e813f5, 2020-09-07)"
   sodipodi:docname="coat.svg">
  <defs
     id="defs2025">
    <inkscape:path-effect
       effect="bspline"
       id="path-effect2610"
       is_visible="true"
       lpeversion="1"
       weight="33.333333"
       steps="2"
       helper_size="0"
       apply_no_weight="true"
       apply_with_weight="true"
       only_selected="false" />
  </defs>
  <sodipodi:namedview
     id="base"
     pagecolor="#ffffff"
     bordercolor="#666666"
     borderopacity="1.0"
     inkscape:pageopacity="0.0"
     inkscape:pageshadow="2"
     inkscape:zoom="1.979899"
     inkscape:cx="54.856606"
     inkscape:cy="124.99104"
     inkscape:document-units="mm"
     inkscape:current-layer="layer1"
     inkscape:document-rotation="0"
     showgrid="false"
     units="px"
     inkscape:window-width="1920"
     inkscape:window-height="1017"
     inkscape:window-x="-8"
     inkscape:window-y="-8"
     inkscape:window-maximized="1" />
  <metadata
     id="metadata2028">
    <rdf:RDF>
      <cc:Work
         rdf:about="">
        <dc:format>image/svg+xml</dc:format>
        <dc:type
           rdf:resource="http://purl.org/dc/dcmitype/StillImage" />
        <dc:title></dc:title>
      </cc:Work>
    </rdf:RDF>
  </metadata>
  <g
     inkscape:label="Laag 1"
     inkscape:groupmode="layer"
     id="layer1"
     transform="translate(-234.94357,-105.97544)">
    <path
       id="path4574"
       style="fill:#ff0000;fill-opacity:1;fill-rule:evenodd;stroke:none;stroke-width:0.264583px;stroke-linecap:butt;stroke-linejoin:miter;stroke-opacity:1"
       d="m 251.79734,178.9757 c 1.83649,-1.88044 3.83046,-3.57139 5.99151,-5.07961 1.45296,-1.31554 2.82453,-3.15971 5.0978,-2.75827 2.89338,-0.5584 5.39953,0.98812 7.48748,2.78249 2.86243,2.43192 3.08569,-1.87639 2.27233,-3.76566 -0.37455,-2.817 -0.0777,-5.68423 -0.53726,-8.48302 -0.64825,-3.07588 -0.90733,-6.20341 -1.18332,-9.3419 -0.0619,-4.15968 0.71527,-8.39865 0.0276,-12.47907 -0.15471,-3.62166 -2.05819,-6.78816 -3.05304,-10.2064 -1.01066,-3.28721 -2.1865,-6.53396 -2.62774,-9.95759 -1.06167,-2.64694 -2.69064,-5.54575 -5.67774,-6.25856 -2.60402,-0.1489 -3.96818,-1.78719 -5.32379,-3.65162 -2.79527,-1.15279 -4.97973,-4.02289 -8.2196,-3.78738 -2.73674,0.89508 -2.16713,3.93868 -3.47469,5.65618 -1.985,1.70376 -3.42918,4.12542 -4.94537,6.3031 -1.58742,2.58673 -1.87508,5.64026 -2.53382,8.52137 -0.68513,4.42491 1.05885,8.64248 2.38235,12.75235 0.68317,3.72195 1.34704,7.47128 1.70032,11.24374 0.0989,3.99029 -0.27271,7.9681 -0.88097,11.89057 -0.27134,4.16237 -2.553,8.3906 -1.06708,12.5447 1.05095,2.8459 4.3132,-1.36548 4.78801,1.93854 0.76173,2.70243 3.76524,2.72674 6.07976,2.864 1.17568,-0.0619 2.97377,0.48618 3.69724,-0.72796 z" />
  </g>
</svg>
