<?xml version="1.0" encoding="UTF-8" standalone="no"?>
<svg
   xmlns:dc="http://purl.org/dc/elements/1.1/"
   xmlns:cc="http://creativecommons.org/ns#"
   xmlns:rdf="http://www.w3.org/1999/02/22-rdf-syntax-ns#"
   xmlns:svg="http://www.w3.org/2000/svg"
   xmlns="http://www.w3.org/2000/svg"
   xmlns:sodipodi="http://sodipodi.sourceforge.net/DTD/sodipodi-0.dtd"
   xmlns:inkscape="http://www.inkscape.org/namespaces/inkscape"
   width="1920"
   height="1080"
   viewBox="0 0 508 285.75"
   version="1.1"
   id="svg20"
   inkscape:version="1.0.1 (3bc2e813f5, 2020-09-07)"
   sodipodi:docname="fireplace.svg">
  <defs
     id="defs14" />
  <sodipodi:namedview
     id="base"
     pagecolor="#ffffff"
     bordercolor="#666666"
     borderopacity="1.0"
     inkscape:pageopacity="0.0"
     inkscape:pageshadow="2"
     inkscape:zoom="0.5"
     inkscape:cx="996.98502"
     inkscape:cy="547.59499"
     inkscape:document-units="mm"
     inkscape:current-layer="layer1"
     inkscape:document-rotation="0"
     showgrid="false"
     units="px"
     inkscape:window-width="1920"
     inkscape:window-height="1017"
     inkscape:window-x="-8"
     inkscape:window-y="-8"
     inkscape:window-maximized="1"
     showguides="false" />
  <metadata
     id="metadata17">
    <rdf:RDF>
      <cc:Work
         rdf:about="">
        <dc:format>image/svg+xml</dc:format>
        <dc:type
           rdf:resource="http://purl.org/dc/dcmitype/StillImage" />
        <dc:title />
      </cc:Work>
    </rdf:RDF>
  </metadata>
  <g
     inkscape:groupmode="layer"
     id="layer1"
     inkscape:label="Rocks"
     style="display:inline">
    <g
       id="g1570"
       transform="translate(15.375763,-84.328651)">
      <path
         style="display:inline;fill:#3a3732;fill-opacity:1;stroke:none;stroke-width:0.264583px;stroke-linecap:butt;stroke-linejoin:miter;stroke-opacity:1"
         d="m 276.50545,224.73095 c 5.98422,-1.18268 7.52404,-2.82315 7.52132,-4.03922 -0.003,-1.21608 0.2255,-3.74229 -2.39657,-4.99928 -2.62205,-1.25699 -5.37856,0.10556 -7.1536,1.13852 -1.77503,1.03296 -5.93451,2.4922 -4.89813,5.81071 0.51815,1.65911 0.94174,2.80423 2.53178,2.70713 1.59004,-0.0971 4.3952,-0.61786 4.3952,-0.61786 z"
         id="path917"
         sodipodi:nodetypes="ccssssc" />
      <path
         style="display:inline;fill:#3a3730;fill-opacity:1;stroke:none;stroke-width:0.264583px;stroke-linecap:butt;stroke-linejoin:miter;stroke-opacity:1"
         d="m 274.70872,236.9893 c -1.2209,-0.0417 -8.46719,-0.63589 -3.38169,-6.3067 5.0855,-5.67081 10.19003,-2.82911 10.80005,-1.94179 0.61003,0.88731 2.39186,2.89453 -0.40923,5.2394 -2.80109,2.34488 -4.46803,3.09581 -7.00913,3.00909 z"
         id="path898"
         sodipodi:nodetypes="sssss" />
      <path
         style="display:inline;opacity:1;fill:#3a373b;fill-opacity:1;stroke:none;stroke-width:0.264583px;stroke-linecap:butt;stroke-linejoin:miter;stroke-opacity:1"
         d="m 268.10541,233.21551 c 4.32626,-0.0798 6.64571,1.80926 5.34004,3.58953 -2.60574,3.5529 -5.13843,2.91136 -6.35638,2.07218 -1.21796,-0.83918 -3.30992,-5.58189 1.01634,-5.66171 z"
         id="path896"
         sodipodi:nodetypes="zssz" />
      <path
         style="fill:#373738;fill-opacity:1;stroke:none;stroke-width:0.264583px;stroke-linecap:butt;stroke-linejoin:miter;stroke-opacity:1"
         d="m 283.67381,230.18729 c 0.79492,-0.0953 6.59548,0.26589 5.60009,-5.62519 -0.99536,-5.89108 -5.67007,-4.7581 -7.39989,-4.42683 -1.72985,0.33127 -5.09492,1.46133 -4.99428,4.64162 0.10065,3.18029 0.80527,4.53511 2.72377,4.905 1.91846,0.36989 4.07031,0.50544 4.07031,0.50544 z"
         id="path908"
         sodipodi:nodetypes="ssssscs" />
      <path
         style="display:inline;opacity:0.994;fill:#3a3732;fill-opacity:1;stroke:none;stroke-width:0.264583px;stroke-linecap:butt;stroke-linejoin:miter;stroke-opacity:1"
         d="m 256.04591,234.44454 c 0,0 -5.80678,6.29685 1.93138,5.88268 7.73817,-0.41417 7.27231,-1.6699 7.86498,-2.86186 0.59264,-1.19195 1.91201,-2.7824 0.58539,-4.43309 -1.32659,-1.65068 -2.12197,-2.37651 -4.30389,-1.97476 -2.18192,0.40175 -6.07786,3.38703 -6.07786,3.38703 z"
         id="path892"
         inkscape:label="path892" />
      <path
         style="fill:#3a3732;fill-opacity:1;stroke:none;stroke-width:0.264583px;stroke-linecap:butt;stroke-linejoin:miter;stroke-opacity:1"
         d="m 269.48484,222.59511 c 0,0 -3.02005,0.99251 -4.68056,-1.48625 -1.78328,-2.66204 -3.56564,-4.90312 -0.62224,-6.35964 2.94341,-1.45652 3.45726,-1.7383 4.90794,-1.41413 2.60223,0.5815 6.20053,1.61138 6.36735,2.83888 0.16682,1.2275 0.33128,1.72983 -1.02219,3.04248 -1.52019,1.47434 -4.9503,3.37866 -4.9503,3.37866 z"
         id="path928"
         sodipodi:nodetypes="cssszsc" />
      <path
         style="fill:#3a373e;fill-opacity:1;stroke:none;stroke-width:0.264583px;stroke-linecap:butt;stroke-linejoin:miter;stroke-opacity:1"
         d="m 261.19291,216.67356 c 1.9156,-0.21572 4.29948,-1.59986 4.7177,-2.81687 0.41823,-1.21702 0.27739,-1.45057 -0.051,-1.87078 -0.32832,-0.42022 -3.2307,-1.53627 -7.53081,-0.21703 -4.3001,1.31923 -7.38883,0.531 -8.93294,0.25382 -1.5441,-0.27718 -3.78529,1.4584 -2.80047,2.62551 0.98483,1.1671 5.80507,2.37241 8.2369,2.22666 2.12151,-0.0186 4.44502,0.0144 6.36062,-0.20131 z"
         id="path931"
         sodipodi:nodetypes="zssssscz" />
      <path
         style="fill:#3a3732;fill-opacity:1;stroke:none;stroke-width:0.264583px;stroke-linecap:butt;stroke-linejoin:miter;stroke-opacity:1"
         d="m 244.63613,216.94443 c 5.56357,-1.04143 7.38654,-1.55999 6.07096,-4.22308 -1.31558,-2.66308 -6.59883,-1.7626 -8.23554,-1.61862 -1.63671,0.14397 -6.17443,-0.22007 -6.07587,2.02478 0.0986,2.24485 2.86083,3.45476 4.35806,3.68528 1.49723,0.23051 3.88239,0.13164 3.88239,0.13164 z"
         id="path934" />
      <path
         style="fill:#3a3d36;fill-opacity:1;stroke:none;stroke-width:0.264583px;stroke-linecap:butt;stroke-linejoin:miter;stroke-opacity:1"
         d="m 232.4577,216.43939 c 0.69423,-0.13384 4.36507,0.61863 5.15401,-1.53288 0.78894,-2.1515 -2.68353,-2.9375 -2.68353,-2.9375 0,0 -2.45027,-1.28436 -7.87296,-0.71001 -5.42269,0.57436 -8.03558,1.09205 -7.7005,2.46462 0.73433,3.008 4.99991,2.63466 6.62055,2.66411 1.62064,0.0294 6.48243,0.0517 6.48243,0.0517 z"
         id="path937"
         sodipodi:nodetypes="cscssscc" />
      <path
         style="fill:#3a3732;fill-opacity:1;stroke:none;stroke-width:0.264583px;stroke-linecap:butt;stroke-linejoin:miter;stroke-opacity:1"
         d="m 220.08905,216.73162 c 0.16522,-0.0665 1.91719,-0.4673 1.64728,-2.84795 -0.2699,-2.38066 -7.11561,-2.19999 -7.11561,-2.19999 0,0 -2.81163,-0.19216 -4.85949,1.00304 -2.04785,1.1952 -1.96559,2.38773 -1.3153,3.40946 0.6306,0.99078 1.55871,1.91475 3.50942,1.64581 1.9507,-0.26895 8.1337,-1.01037 8.1337,-1.01037 z"
         id="path940"
         sodipodi:nodetypes="cscsssc" />
      <path
         style="fill:#3a3739;fill-opacity:1;stroke:none;stroke-width:0.264583px;stroke-linecap:butt;stroke-linejoin:miter;stroke-opacity:1"
         d="m 210.07049,217.87849 c -0.31257,-1.17647 -0.33612,-2.41358 -1.85917,-3.17085 -1.7007,-0.8456 -7.07641,0.54499 -9.78639,1.44401 -2.70998,0.89901 -7.43406,3.29084 -8.25911,4.08643 -0.82505,0.7956 -2.57089,3.94143 2.69309,6.344 5.26397,2.40257 10.92181,-3.5476 13.05852,-4.55629 2.13671,-1.00869 4.46563,-2.97083 4.15306,-4.1473 z"
         id="path942"
         sodipodi:nodetypes="zszzszz" />
      <path
         style="display:inline;fill:#3a3743;fill-opacity:1;stroke:none;stroke-width:0.264583px;stroke-linecap:butt;stroke-linejoin:miter;stroke-opacity:1"
         d="m 203.07775,226.26159 c -0.53293,-1.68553 -2.45523,-3.50025 -4.7377,-3.69359 -2.28247,-0.19334 -9.19084,1.54189 -10.01308,3.59426 -0.82224,2.05237 -0.71437,5.92166 1.60102,6.04878 2.31539,0.12712 6.02589,-0.41509 8.23248,-1.20903 2.20659,-0.79393 5.68598,-2.04085 4.91728,-4.74042 z"
         id="path946"
         sodipodi:nodetypes="cszszc" />
      <path
         style="display:inline;fill:#393739;fill-opacity:1;stroke:none;stroke-width:0.264583px;stroke-linecap:butt;stroke-linejoin:miter;stroke-opacity:1"
         d="m 204.86967,228.9365 c -1.53313,-0.38802 -6.41812,-0.87863 -7.90367,0.34839 -1.48554,1.22702 -3.58175,2.66647 -2.90028,4.53748 0.5657,1.55317 0.47801,3.73881 4.9695,3.82536 3.07592,0.0593 4.53098,-0.0101 5.95178,-0.60864 1.4208,-0.59849 2.2477,-0.8111 2.83723,-3.14827 0.58953,-2.33718 -1.42143,-4.5663 -2.95456,-4.95432 z"
         id="path949"
         sodipodi:nodetypes="zzssszz" />
      <path
         style="display:inline;fill:#3a3732;fill-opacity:1;stroke:none;stroke-width:0.264583px;stroke-linecap:butt;stroke-linejoin:miter;stroke-opacity:1"
         d="m 210.35352,240.92974 c 0,0 4.96093,-0.0111 6.21555,-0.97301 1.25462,-0.96193 2.26082,-2.68585 0.11957,-5.68882 -1.45979,-2.04726 -3.57644,-2.04254 -5.99032,-1.8387 -2.36777,0.19994 -4.03385,0.47204 -5.35314,2.09556 -1.02711,1.26395 -1.57722,4.60067 0.64065,5.48868 2.21788,0.88802 4.36769,0.91629 4.36769,0.91629 z"
         id="path952"
         sodipodi:nodetypes="czssssc" />
      <path
         style="display:inline;fill:#3a3732;fill-opacity:1;stroke:none;stroke-width:0.264583px;stroke-linecap:butt;stroke-linejoin:miter;stroke-opacity:1"
         d="m 220.57649,242.46133 c 1.63759,0.21131 7.73993,0.37958 9.22592,-0.64902 1.12583,-0.77929 2.80557,-2.51981 1.87481,-4.6344 -0.93077,-2.11459 -2.91914,-3.89609 -5.59774,-3.75781 -2.6786,0.13828 -5.6587,0.52592 -6.80998,1.37121 -0.85848,0.6303 -2.913,2.01084 -2.43778,4.30494 0.56837,2.74379 2.10718,3.15376 3.74477,3.36508 z"
         id="path957"
         sodipodi:nodetypes="zsssssz" />
      <path
         style="display:inline;fill:#3a3738;fill-opacity:1;stroke:none;stroke-width:0.264583px;stroke-linecap:butt;stroke-linejoin:miter;stroke-opacity:1"
         d="m 237.50868,241.92739 c -2.01748,-0.012 -6.44987,-0.28324 -7.21299,-1.37295 -0.76312,-1.0897 -0.54188,-5.68735 1.01033,-6.683 1.55221,-0.99566 2.70809,-1.50896 5.81764,-1.43514 2.54676,0.0605 4.46483,-0.01 5.35906,0.55026 0.89422,0.56024 3.32669,1.74153 1.96252,5.02271 -1.36416,3.28118 -4.42776,3.92894 -6.93656,3.91812 z"
         id="path959"
         sodipodi:nodetypes="cszsszc" />
      <path
         style="display:inline;fill:#34373a;fill-opacity:1;stroke:none;stroke-width:0.264583px;stroke-linecap:butt;stroke-linejoin:miter;stroke-opacity:1"
         d="m 253.87862,241.39471 c 0.58733,-1.05527 1.50657,-6.61796 0.0488,-7.73919 -1.45772,-1.12122 -3.34339,-1.34852 -4.76493,-1.08076 -1.42154,0.26776 -4.82523,1.53214 -6.33882,5.00819 -1.51359,3.47605 -0.35065,5.88778 0.93934,5.95104 1.28999,0.0633 4.76652,0.0204 6.01926,-0.0135 3.17109,-0.15476 3.50896,-1.07052 4.0963,-2.12578 z"
         id="path963"
         sodipodi:nodetypes="zszzscz" />
    </g>
  </g>
</svg>
