<?xml version="1.0" encoding="UTF-8" standalone="no"?>
<svg
   xmlns:dc="http://purl.org/dc/elements/1.1/"
   xmlns:cc="http://creativecommons.org/ns#"
   xmlns:rdf="http://www.w3.org/1999/02/22-rdf-syntax-ns#"
   xmlns:svg="http://www.w3.org/2000/svg"
   xmlns="http://www.w3.org/2000/svg"
   xmlns:sodipodi="http://sodipodi.sourceforge.net/DTD/sodipodi-0.dtd"
   xmlns:inkscape="http://www.inkscape.org/namespaces/inkscape"
   width="105.20713"
   height="106.96082"
   viewBox="0 0 27.836053 28.300051"
   version="1.1"
   id="svg4592"
   inkscape:version="1.0.1 (3bc2e813f5, 2020-09-07)"
   sodipodi:docname="head.svg">
  <defs
     id="defs4586">
    <inkscape:path-effect
       effect="bspline"
       id="path-effect5778"
       is_visible="true"
       lpeversion="1"
       weight="33.333333"
       steps="2"
       helper_size="0"
       apply_no_weight="true"
       apply_with_weight="true"
       only_selected="false" />
    <inkscape:path-effect
       effect="bspline"
       id="path-effect5765"
       is_visible="true"
       lpeversion="1"
       weight="33.333333"
       steps="2"
       helper_size="0"
       apply_no_weight="true"
       apply_with_weight="true"
       only_selected="false" />
    <inkscape:path-effect
       effect="bspline"
       id="path-effect5760"
       is_visible="true"
       lpeversion="1"
       weight="33.333333"
       steps="2"
       helper_size="0"
       apply_no_weight="true"
       apply_with_weight="true"
       only_selected="false" />
    <inkscape:path-effect
       effect="bspline"
       id="path-effect5755"
       is_visible="true"
       lpeversion="1"
       weight="33.333333"
       steps="2"
       helper_size="0"
       apply_no_weight="true"
       apply_with_weight="true"
       only_selected="false" />
  </defs>
  <sodipodi:namedview
     id="base"
     pagecolor="#ffffff"
     bordercolor="#666666"
     borderopacity="1.0"
     inkscape:pageopacity="0.0"
     inkscape:pageshadow="2"
     inkscape:zoom="1.979899"
     inkscape:cx="-26.939735"
     inkscape:cy="97.583804"
     inkscape:document-units="mm"
     inkscape:current-layer="layer1"
     inkscape:document-rotation="0"
     showgrid="false"
     units="px"
     inkscape:window-width="1920"
     inkscape:window-height="1017"
     inkscape:window-x="-8"
     inkscape:window-y="-8"
     inkscape:window-maximized="1" />
  <metadata
     id="metadata4589">
    <rdf:RDF>
      <cc:Work
         rdf:about="">
        <dc:format>image/svg+xml</dc:format>
        <dc:type
           rdf:resource="http://purl.org/dc/dcmitype/StillImage" />
        <dc:title></dc:title>
      </cc:Work>
    </rdf:RDF>
  </metadata>
  <g
     inkscape:label="Laag 1"
     inkscape:groupmode="layer"
     id="layer1"
     transform="translate(-240.08197,-128.72492)">
    <path
       style="fill:#3c4244;fill-opacity:1;stroke:none;stroke-width:0.264583px;stroke-linecap:butt;stroke-linejoin:miter;stroke-opacity:1"
       d="m 267.77382,140.09342 c -0.0236,0.0879 -0.0705,0.26195 -0.19924,0.43146 -0.12879,0.1695 -0.34038,0.33654 -0.46746,0.42283 -0.12709,0.0863 -0.17162,0.0919 -0.36365,0.10584 -0.19203,0.014 -0.53169,0.0362 -0.81557,0.0475 -0.28388,0.0112 -0.51217,0.0112 -0.67364,0.0112 -0.16147,0 -0.25614,0 -0.36466,-0.003 -0.10853,-0.003 -0.23104,-0.008 -0.3395,-0.0165 -0.10845,-0.008 -0.20318,-0.0194 -0.34251,-0.0251 -0.13934,-0.006 -0.32309,-0.006 -0.58469,-0.0195 -0.2616,-0.0138 -0.60126,-0.0416 -0.85188,-0.0584 -0.25062,-0.0168 -0.41208,-0.0223 -0.56791,-0.0334 -0.15583,-0.011 -0.30618,-0.0277 -0.46495,-0.039 -0.15878,-0.0112 -0.32581,-0.0168 -0.43695,-0.0249 -0.11114,-0.008 -0.16695,-0.0192 -0.34528,-0.0306 -0.17833,-0.0114 -0.47903,-0.0225 -0.68509,-0.0281 -0.20607,-0.006 -0.31743,-0.006 -0.48155,-0.0193 -0.16411,-0.0137 -0.38127,-0.0416 -0.50391,-0.0557 -0.12265,-0.0141 -0.15045,-0.0141 -0.18354,-0.0192 -0.0331,-0.005 -0.0722,-0.0163 -0.13911,-0.0277 -0.0669,-0.0114 -0.16163,-0.0225 -0.22301,-0.0283 -0.0614,-0.006 -0.0892,-0.006 -0.11388,-0.0105 -0.0247,-0.005 -0.0472,-0.016 -0.0697,-0.0223 -0.0225,-0.006 -0.0448,-0.006 -0.0781,-0.0115 -0.0332,-0.005 -0.0777,-0.0163 -0.1445,-0.0303 -0.0668,-0.014 -0.15596,-0.0307 -0.22841,-0.042 -0.0724,-0.0113 -0.1281,-0.0168 -0.22542,-0.0415 -0.0973,-0.0247 -0.23652,-0.0692 -0.31751,-0.092 -0.081,-0.0228 -0.10329,-0.0228 -0.14202,-0.0386 -0.0387,-0.0158 -0.0944,-0.0492 -0.14449,-0.0746 -0.0501,-0.0254 -0.0946,-0.0421 -0.16748,-0.11638 -0.0729,-0.0743 -0.1731,-0.20791 -0.20777,-0.40593 -0.0347,-0.19802 -0.001,-0.45972 0.0293,-0.61094 0.0306,-0.15122 0.0584,-0.19019 0.0794,-0.20994 0.021,-0.0197 0.0321,-0.0197 0.0417,-0.0278 0.01,-0.008 0.0208,-0.0248 0.11406,-0.0391 0.0933,-0.0143 0.26593,-0.0254 0.41909,-0.0337 0.15316,-0.008 0.28677,-0.0139 0.42877,-0.0195 0.14201,-0.006 0.29233,-0.0111 0.52068,-0.0139 0.22835,-0.003 0.5346,-0.003 0.82973,7e-5 0.29514,0.003 0.57911,0.008 1.00233,0.0251 0.42322,0.0167 0.98559,0.0446 1.31418,0.0642 0.32859,0.0196 0.42325,0.0307 0.51497,0.0361 0.0917,0.005 0.18085,0.005 0.26732,0.0112 0.0865,0.006 0.16996,0.0169 0.29513,0.0251 0.12518,0.008 0.29223,0.0138 0.46216,0.0278 0.16993,0.0141 0.34254,0.0363 0.53743,0.0614 0.19488,0.025 0.41203,0.0529 0.60426,0.0978 0.19222,0.0449 0.35927,0.10619 0.55134,0.1673 0.19208,0.0611 0.40923,0.12236 0.57629,0.17256 0.16706,0.0502 0.284,0.0892 0.43428,0.12795 0.15029,0.0388 0.33404,0.0778 0.52617,0.12518 0.19214,0.0474 0.39259,0.10312 0.55115,0.13623 0.15856,0.0331 0.27548,0.0442 0.37562,0.0497 0.10013,0.005 0.18361,0.005 0.25175,0.0106 0.0681,0.005 0.12054,0.0148 0.14521,0.0194 0.0247,0.005 0.0246,0.005 9.5e-4,0.0925 z"
       id="path5776"
       inkscape:path-effect="#path-effect5778"
       inkscape:original-d="m 267.79747,140.0055 c -0.0442,0.17668 -0.091,0.35071 -0.14043,0.5221 -0.20895,0.16969 -0.42054,0.33673 -0.63477,0.50113 -0.0419,0.008 -0.0864,0.0138 -0.13363,0.0167 -0.33702,0.0249 -0.67667,0.0472 -1.01897,0.0668 -0.22565,0.003 -0.45394,0.003 -0.68488,0 -0.092,0.003 -0.18667,0.003 -0.28397,0 -0.11986,-0.003 -0.24235,-0.009 -0.3675,-0.0167 -0.092,-0.008 -0.18667,-0.0196 -0.28397,-0.0334 -0.1811,0.003 -0.36485,0.003 -0.55125,0 -0.337,-0.0252 -0.67666,-0.053 -1.01896,-0.0835 -0.15883,-0.003 -0.3203,-0.008 -0.48442,-0.0167 -0.1477,-0.014 -0.29804,-0.0308 -0.45102,-0.0501 -0.1644,-0.003 -0.33145,-0.008 -0.50113,-0.0167 -0.053,-0.008 -0.10872,-0.0196 -0.16705,-0.0334 -0.29803,-0.008 -0.59871,-0.0196 -0.90203,-0.0334 -0.10872,0.003 -0.22008,0.003 -0.33409,0 -0.21451,-0.0252 -0.43167,-0.053 -0.65147,-0.0835 -0.0252,0.003 -0.053,0.003 -0.0835,0 -0.0363,-0.008 -0.0753,-0.0196 -0.11693,-0.0334 -0.092,-0.008 -0.18667,-0.0196 -0.28397,-0.0334 -0.0252,0.003 -0.053,0.003 -0.0835,0 -0.0196,-0.008 -0.0419,-0.0196 -0.0668,-0.0334 -0.0196,0.003 -0.0419,0.003 -0.0668,0 -0.0419,-0.009 -0.0865,-0.0196 -0.13364,-0.0334 -0.0864,-0.014 -0.17553,-0.0308 -0.26727,-0.0501 -0.053,-0.003 -0.10871,-0.008 -0.16704,-0.0167 -0.13656,-0.0419 -0.27576,-0.0864 -0.41761,-0.13363 -0.0196,0.003 -0.0419,0.003 -0.0668,0 -0.053,-0.0308 -0.10871,-0.0642 -0.16704,-0.10023 -0.0419,-0.014 -0.0864,-0.0308 -0.13363,-0.0501 -0.0976,-0.13099 -0.19781,-0.26462 -0.30068,-0.4009 0.0361,-0.25906 0.0695,-0.52076 0.10023,-0.78511 0.0305,-0.0363 0.0583,-0.0753 0.0835,-0.11693 0.0138,0.003 0.0249,0.003 0.0334,0 0.0138,-0.014 0.0249,-0.0308 0.0334,-0.0501 0.17526,-0.008 0.34787,-0.0196 0.51784,-0.0334 0.13628,-0.003 0.26991,-0.008 0.4009,-0.0167 0.15299,-0.003 0.30333,-0.008 0.45102,-0.0167 0.30889,0.003 0.61514,0.003 0.91874,0 0.28662,0.008 0.57059,0.0138 0.85192,0.0167 0.56503,0.0305 1.12741,0.0583 1.68714,0.0835 0.0973,0.0138 0.19196,0.0249 0.28398,0.0334 0.0917,0.003 0.18082,0.003 0.26726,0 0.0862,0.0138 0.16969,0.0249 0.25057,0.0334 0.16969,0.008 0.33673,0.0138 0.50113,0.0167 0.17526,0.0249 0.34787,0.0472 0.51783,0.0668 0.21981,0.0305 0.43696,0.0583 0.65147,0.0835 0.16969,0.0639 0.33674,0.12515 0.50113,0.18375 0.2198,0.0639 0.43696,0.12514 0.65147,0.18375 0.11958,0.0416 0.23651,0.0806 0.35079,0.11693 0.1864,0.0416 0.37015,0.0806 0.55125,0.11693 0.2031,0.0583 0.40355,0.11401 0.60135,0.16704 0.11958,0.0138 0.23651,0.0249 0.3508,0.0334 0.0862,0.003 0.16968,0.003 0.25056,0 0.055,0.0124 0.1074,0.0221 0.15714,0.0291 z" />
    <path
       id="path5753"
       style="display:inline;opacity:1;fill:#bc8d49;fill-opacity:1;stroke:#bc8d49;stroke-width:0.264583px;stroke-linecap:butt;stroke-linejoin:miter;stroke-opacity:1"
       d="m 253.55287,153.69078 c 0.83017,0.0141 1.58646,0.48621 2.39697,0.36989 0.88193,-0.35637 0.83612,-1.4514 0.85058,-2.25469 0.20942,-0.80133 0.88905,-1.49328 0.98412,-2.3748 0.15049,-1.06366 1.10786,-1.29816 1.95458,-1.55516 1.04654,-0.55547 -0.0445,-1.54705 -0.20247,-2.28525 -0.30732,-0.97587 -0.71449,-2.03109 -0.39357,-3.06406 0.43687,-0.72173 1.43133,-1.75508 0.72482,-2.59453 -0.86005,-0.52654 -1.87583,-0.73361 -2.81326,-1.10591 -0.88161,-0.12651 -1.76119,-0.27566 -2.65432,-0.31975 -1.77314,-0.0711 -3.54433,0.04 -5.30412,0.24689 -1.86051,0.39131 -3.64567,1.06863 -5.46584,1.61239 -0.92341,0.34534 -2.16139,0.60446 -2.40169,1.71401 -0.16231,1.37011 -0.3048,4.0732 0.3852,4.17299 0.69,0.0998 0.38542,1.58654 0.16132,2.47653 -0.61893,0.58994 -1.0531,1.3625 -1.08757,2.22575 -0.0971,1.0763 -0.0834,2.21992 0.53649,3.15486 0.61102,1.2349 1.32694,1.61038 2.96671,2.35071 1.63977,0.74032 4.6383,0.25749 6.37686,-0.0884 1.60442,-0.31589 2.15502,-2.69552 2.98519,-2.68142 z"
       sodipodi:nodetypes="zcccccccccccczccczcz" />
    <path
       id="path5758"
       style="display:inline;fill:#502d16;stroke:#502d16;stroke-width:0.262755px;stroke-linecap:butt;stroke-linejoin:miter;stroke-opacity:1"
       d="m 251.50666,138.33738 c -0.42246,0.2962 -0.73456,0.73186 -0.81291,1.25233 -0.1937,0.74343 -0.005,1.56005 -0.35917,2.27069 -0.1367,0.46001 -0.46592,0.81947 -0.64484,1.26232 -0.21574,0.50572 -0.49052,0.98048 -0.72588,1.47548 -0.26554,0.44109 -0.64136,0.7844 -1.01359,1.12552 -0.36201,0.37071 -0.92391,0.39717 -1.38266,0.59181 -0.59233,0.10173 -1.18287,0.2247 -1.76162,0.39689 -0.81662,0.20565 -1.66169,0.0871 -2.4934,0.0812 -0.45973,0.0441 -0.92507,-0.23322 -1.10294,-0.65752 -0.29323,-0.58243 -0.19213,-1.26256 -0.23359,-1.89385 0.0127,-0.57 -0.004,-1.1475 0.0593,-1.71233 0.12704,-0.54272 0.37954,-1.03931 0.6264,-1.53484 0.27986,-0.44532 0.76533,-0.66398 1.2507,-0.80281 0.46022,-0.18758 0.92817,-0.33315 1.39547,-0.49752 0.80753,-0.27686 1.58412,-0.68341 2.44314,-0.77311 1.28907,-0.21544 2.57086,-0.47072 3.83834,-0.79089 0.32683,-0.023 0.88251,-0.21891 1.08387,0.0108 -0.0203,0.0913 -0.10147,0.14056 -0.16659,0.19584 z" />
    <path
       id="path5763"
       style="fill:#1b4244;fill-opacity:1;stroke:#1b4244;stroke-width:0.264583px;stroke-linecap:butt;stroke-linejoin:miter;stroke-opacity:1"
       d="m 241.16267,142.35269 c 0.95565,-0.91599 2.12575,-1.62565 3.4479,-1.82111 1.10865,-0.40319 2.26414,-0.65529 3.44922,-0.73325 1.6137,-0.17354 3.23149,-0.35018 4.84727,-0.50468 2.18334,-0.11399 4.36079,0.0702 6.52251,0.36946 2.57949,0.18851 8.34425,0.43031 8.34425,0.43031 0.3883,-0.41554 -7.83411,-2.97488 -8.08013,-3.44513 -0.11459,-0.21903 -0.26989,-3.16039 -0.70517,-4.07532 -0.43342,-0.95683 -0.54829,-1.96984 -1.30242,-2.65748 -0.75413,-0.68765 -1.96581,-0.96388 -2.98169,-1.04693 -1.41753,-0.008 -2.86525,-0.0341 -4.27972,0.0369 -1.56682,0.20936 -4.03551,0.69154 -5.37281,1.33341 -1.33731,0.64186 -2.43036,1.08883 -3.19328,2.33665 -0.76292,1.24781 -1.50898,2.80306 -1.58687,4.40269 -0.12775,1.45864 -0.0535,2.94652 0.33519,4.35866 0.0767,0.1685 0.15477,1.45508 0.55575,1.01581 z"
       sodipodi:nodetypes="cccccssczcczzcccc" />
  </g>
</svg>
