<?xml version="1.0" encoding="UTF-8" standalone="no"?>
<svg
   xmlns:dc="http://purl.org/dc/elements/1.1/"
   xmlns:cc="http://creativecommons.org/ns#"
   xmlns:rdf="http://www.w3.org/1999/02/22-rdf-syntax-ns#"
   xmlns:svg="http://www.w3.org/2000/svg"
   xmlns="http://www.w3.org/2000/svg"
   xmlns:sodipodi="http://sodipodi.sourceforge.net/DTD/sodipodi-0.dtd"
   xmlns:inkscape="http://www.inkscape.org/namespaces/inkscape"
   width="1920"
   height="1080"
   viewBox="0 0 508 285.75"
   version="1.1"
   id="svg20"
   inkscape:version="1.0.1 (3bc2e813f5, 2020-09-07)"
   sodipodi:docname="land.svg">
  <defs
     id="defs14" />
  <sodipodi:namedview
     id="base"
     pagecolor="#ffffff"
     bordercolor="#666666"
     borderopacity="1.0"
     inkscape:pageopacity="0.0"
     inkscape:pageshadow="2"
     inkscape:zoom="0.5"
     inkscape:cx="980.8632"
     inkscape:cy="589.584"
     inkscape:document-units="mm"
     inkscape:current-layer="layer1"
     inkscape:document-rotation="0"
     showgrid="false"
     units="px"
     inkscape:window-width="1920"
     inkscape:window-height="1017"
     inkscape:window-x="1912"
     inkscape:window-y="-7"
     inkscape:window-maximized="1"
     showguides="false" />
  <metadata
     id="metadata17">
    <rdf:RDF>
      <cc:Work
         rdf:about="">
        <dc:format>image/svg+xml</dc:format>
        <dc:type
           rdf:resource="http://purl.org/dc/dcmitype/StillImage" />
        <dc:title />
      </cc:Work>
    </rdf:RDF>
  </metadata>
  <g
     inkscape:label="Laag 1"
     inkscape:groupmode="layer"
     id="layer1"
     style="opacity:1">
    <path
       style="fill:#008047;stroke:#008047;stroke-width:1.00157"
       d=""
       id="path28"
       transform="scale(0.26458333)" />
    <path
       style="fill:#008047;stroke:#009947;stroke-width:0.250394;fill-opacity:1;stroke-opacity:1"
       d=""
       id="path855"
       transform="scale(0.26458333)" />
    <path
       style="fill:#007200;stroke:#007200;stroke-width:0.264583px;stroke-linecap:butt;stroke-linejoin:miter;stroke-opacity:1;fill-opacity:1"
       d="m 63.610148,223.00969 c 8.793165,-1.87088 34.050136,-8.98025 44.340012,-13.65747 10.28988,-4.67722 42.39897,-14.54614 54.06862,-15.90254 8.01045,-0.93108 52.56974,-0.97286 57.06205,-0.74835 10.32231,0.51587 55.56534,2.99341 55.56534,2.99341 0,0 3.48332,0.68316 16.19727,2.86113 9.67555,1.65747 34.54249,1.76663 43.10983,4.62242 7.57708,2.5257 53.18797,3.93827 53.18797,3.93827 0,0 24.9921,-0.55593 36.16293,8.14695 3.62643,2.82525 10.22018,9.21347 18.49106,6.05528 12.71585,-4.85548 29.0909,3.12066 29.0909,3.12066 0,0 18.16363,7.08278 37.15314,2.77974 L 508,285.75 H 0 L 0.09249444,250.65553 C 4.5815726,247.61882 54.81698,224.88058 63.610148,223.00969 Z"
       id="path24"
       sodipodi:nodetypes="sssscsscsscccccs" />
  </g>
</svg>
