<?xml version="1.0" encoding="UTF-8" standalone="no"?>
<svg
   xmlns:dc="http://purl.org/dc/elements/1.1/"
   xmlns:cc="http://creativecommons.org/ns#"
   xmlns:rdf="http://www.w3.org/1999/02/22-rdf-syntax-ns#"
   xmlns:svg="http://www.w3.org/2000/svg"
   xmlns="http://www.w3.org/2000/svg"
   xmlns:sodipodi="http://sodipodi.sourceforge.net/DTD/sodipodi-0.dtd"
   xmlns:inkscape="http://www.inkscape.org/namespaces/inkscape"
   width="1920"
   height="1080"
   viewBox="0 0 508 285.75"
   version="1.1"
   id="svg20"
   inkscape:version="1.0.1 (3bc2e813f5, 2020-09-07)"
   sodipodi:docname="land.svg">
  <defs
     id="defs14" />
  <sodipodi:namedview
     id="base"
     pagecolor="#ffffff"
     bordercolor="#666666"
     borderopacity="1.0"
     inkscape:pageopacity="0.0"
     inkscape:pageshadow="2"
     inkscape:zoom="0.5"
     inkscape:cx="832.01141"
     inkscape:cy="595.1843"
     inkscape:document-units="mm"
     inkscape:current-layer="layer6"
     inkscape:document-rotation="0"
     showgrid="false"
     units="px"
     inkscape:window-width="1920"
     inkscape:window-height="1017"
     inkscape:window-x="1912"
     inkscape:window-y="-7"
     inkscape:window-maximized="1"
     showguides="false" />
  <metadata
     id="metadata17">
    <rdf:RDF>
      <cc:Work
         rdf:about="">
        <dc:format>image/svg+xml</dc:format>
        <dc:type
           rdf:resource="http://purl.org/dc/dcmitype/StillImage" />
        <dc:title />
      </cc:Work>
    </rdf:RDF>
  </metadata>
  <g
     inkscape:groupmode="layer"
     id="layer6"
     inkscape:label="Tree Light"
     style="opacity:1">
    <path
       id="path952"
       style="fill:#843c16;stroke:#843c16;stroke-width:0.264583px;stroke-linecap:butt;stroke-linejoin:miter;stroke-opacity:1;fill-opacity:1"
       d="m 309.7136,200.28274 c 3.8456,-0.77512 9.8656,-0.81225 10.84791,-5.15937 3.29048,-6.12143 -2.88899,-12.50072 0.30196,-18.45675 1.96868,-4.71706 2.27761,-9.91812 2.34388,-15.01304 -0.54189,-7.14076 0.15715,-14.28736 1.98437,-21.03438 -0.23486,-4.90882 2.82396,-9.22794 0.92605,-13.75833 -2.25365,-5.27384 1.25552,-11.1962 1.32291,-16.66876 1.35383,-6.57525 1.67445,-13.302144 2.72884,-19.93982 -0.34255,-7.231763 -1.28229,-14.30508 0.31387,-21.467467 -3.88263,-3.589094 -5.22689,-5.532469 0.28964,-5.641645 -0.12138,-1.259192 0.88787,-10.613895 1.01261,-14.971915 -0.57894,-7.347631 0.25112,-14.474013 0.94671,-21.719773 0.50815,-4.538279 2.07834,-9.950814 1.45521,-13.626042 1.13752,-5.0715439 -2.07414,-15.6530217 6.21771,-13.8906247 4.66511,0.68511903 13.06963,-2.929231 12.36926,4.7625 -1.50665,5.7905798 -3.24888,12.6517147 0.8025,12.4441247 4.1593,0.09907 4.81381,5.142641 0.18972,4.985302 -5.34295,-0.09853 -3.95462,8.733461 -3.98941,12.636356 0.4649,6.070968 -2.0191,11.518891 -0.60772,17.426925 2.14727,5.427968 -0.0581,10.961863 -0.19844,15.775782 1.05545,5.312216 -1.51642,10.031678 -0.23151,14.915885 -0.35123,6.437526 -1.00227,12.928756 -2.18281,19.314582 0.9343,7.46271 -1.2867,14.84827 -1.25677,22.22501 0.51473,4.32475 -0.28751,11.32904 -0.79375,15.34583 -0.24156,2.46848 1.46001,4.68431 -2.11667,6.87917 1.21948,6.47305 -1.50253,13.44678 0,20.50521 1.96674,7.15797 2.00898,14.65117 2.49803,22.03052 -0.82073,5.29162 3.29521,8.14851 6.89468,10.77781 1.78594,4.01691 7.46121,4.35167 9.12813,8.20208 -6.97538,1.85303 -14.44745,0.39752 -21.56355,0.26459 -7.95035,-0.71294 -15.99331,-1.13078 -23.94438,-1.99904 -2.87187,0.66799 -10.28042,-0.60318 -7.14416,-4.21867 1.64134,0.32684 0.0109,-1.45474 1.45521,-0.92605 z"
       sodipodi:nodetypes="scccccccccccccccccccccccccccccccss" />
  </g>
  <g
     inkscape:groupmode="layer"
     id="layer7"
     inkscape:label="Tree Dark">
    <path
       id="path968"
       style="fill:#2a1a16;stroke:#2a1a16;stroke-width:0.264583px;stroke-linecap:butt;stroke-linejoin:miter;stroke-opacity:1;fill-opacity:1"
       d="m 335.09217,56.678545 c -0.58081,-8.406112 0.56806,-16.737706 0.28058,-25.163425 3.61696,3.764141 0.41063,10.877244 2.24503,15.154179 0.7311,2.770119 0.11388,15.73593 1.74215,6.472288 -0.35433,-6.336243 1.89087,-12.61424 0.24402,-18.881337 -1.13362,-3.954014 -4.84385,-6.086066 -6.38289,-9.854508 -3.33914,-2.417085 0.56611,-11.115456 1.77737,-4.115952 -0.33996,5.40567 8.46041,8.566789 5.42566,0.561266 -1.24839,-3.257228 -3.88203,-5.181903 -5.42546,-8.231893 -3.7929,-2.056274 -0.73576,-8.7085639 2.33855,-2.712786 4.9838,4.414655 1.80964,-6.9267363 4.30304,-9.44797403 -2.35859,-7.17839167 6.33727,-7.45543517 10.20654,-4.50607627 0.43228,4.02336584 -1.48613,8.3378865 -1.83946,12.5642429 -1.33717,3.5899764 1.45941,4.2899134 3.88717,4.8509164 2.334,1.19007 0.37898,4.508947 -2.61924,4.303027 -3.33284,2.267914 -2.92023,7.666714 -2.99334,11.550637 0.15497,6.274821 -0.26463,12.440444 -0.28073,18.664184 1.93223,4.366281 -0.4446,8.384998 -0.187,12.884034 -0.007,6.243714 0.7359,12.468145 -0.56113,18.64045 -1.07569,7.780998 -0.91715,15.717387 -2.43192,23.386082 0.88556,7.09398 -1.52817,14.18732 -0.93565,21.42165 0.10904,4.7214 -1.52292,9.5437 -0.55718,14.22268 -2.27773,3.15975 -3.31939,7.26627 -1.94695,11.56779 -0.87573,4.77085 -0.15248,10.37707 -0.40839,15.55376 -0.11053,5.68232 2.6747,10.94912 1.97686,16.72307 0.46837,3.55195 -1.17414,9.36593 3.18042,10.40715 4.61418,2.32801 6.65797,7.17175 11.97363,8.41895 2.94696,1.94066 6.34591,7.80332 -0.61159,8.29029 -14.35279,1.85931 -29.2432,0.17639 -42.9849,-4.29222 -8.24191,-6.32818 11.19688,-3.07749 9.35925,-10.45263 1.22782,-5.79175 -1.26681,-12.04586 1.49672,-17.49279 3.03958,-4.16981 1.08131,9.11254 2.05782,11.78659 0.75233,3.11377 -1.83413,10.07914 1.68383,3.46109 2.20378,-5.85056 0.86145,-12.09011 1.30963,-18.24109 -1.63014,-7.33001 -1.18234,-14.8904 -1.12249,-22.3571 2.19176,-6.24444 -1.89275,-13.33515 1.59028,-18.98954 -1.23284,-6.41994 5.07899,-10.95435 3.93304,-17.49713 0.62382,-4.64296 1.91512,-11.03315 -1.1599,-14.82145 -1.51304,-2.052856 -2.72144,-5.281197 -4.3633,-6.689362 -0.40844,-4.726154 1.40228,-8.466532 2.24503,-12.722025 0.89111,-5.45342 3.61376,-0.551511 0.65483,2.712778 1.85008,2.478008 1.12153,12.080671 3.64818,11.038229 -0.0211,-6.037167 0.32769,-12.399495 -1.30962,-18.241145 0.29521,-5.588184 -6.11853,-6.175615 -7.57692,-10.757598 -0.27241,-5.439159 9.48376,2.716549 7.65605,-3.176019 -0.41828,-2.022489 -0.0209,-4.032547 0.48238,-5.991283 z" />
  </g>
  <g
     inkscape:groupmode="layer"
     id="layer3"
     inkscape:label="Rocks">
    <path
       id="path883"
       style="fill:#241c1c;stroke:#000000;stroke-width:0.264583px;stroke-linecap:butt;stroke-linejoin:miter;stroke-opacity:1;fill-opacity:1"
       d="m 89.896105,216.46159 c -1.918919,-3.01583 0.613135,-6.38223 1.496708,-9.02702 2.025428,-0.48742 0.729806,-3.87474 2.806332,-4.63042 2.483641,-1.07396 4.562605,-2.18714 6.922245,-3.36728 1.72031,-1.24726 3.1162,-0.0834 4.95785,-0.65495 3.12744,-2.08125 6.09202,1.94954 9.26093,0.18704 1.72429,-2.26711 5.76498,-0.73505 8.41904,-1.96435 3.69595,-1.29001 4.75401,-6.72281 6.64165,-7.85778 2.2861,-1.41273 6.23448,-3.35584 9.74995,-4.44637 3.62254,-0.4061 7.10323,-1.8763 10.39068,-3.37841 3.66582,-1.29182 7.33476,-0.27906 10.8898,-2.00865 3.80244,-2.01321 8.13557,-2.49462 12.28922,-1.91331 3.0639,0.7782 6.47369,-1.2732 9.01835,0.68479 0.62725,0.0412 1.14448,6.18869 4.32638,5.09822 1.94981,-0.55347 3.91441,0.7095 6.78193,2.33855 1.98571,1.46585 3.59006,3.4711 4.18597,5.68274 0.88598,3.12974 -1.13841,8.21196 -4.84193,7.99589 -3.88954,1.68846 -8.15483,-1.16279 -11.90246,0.23597 -3.10005,3.49765 -7.67813,3.76174 -12.02972,4.12701 -4.61122,-0.15579 -9.45326,-0.40957 -13.71453,-2.21543 -4.09128,-0.73928 -4.40666,4.74085 -7.87991,5.52043 -5.30925,0.71533 -10.89669,0.56581 -16.14126,2.20333 -3.64508,0.57985 -6.60353,3.19589 -9.16734,5.7062 -2.44663,3.21739 -6.7268,3.37591 -10.36469,4.34658 -3.72003,0.30809 -7.40976,0.28013 -11.09906,-0.29249 -3.192374,-1.00695 -7.047506,2.05614 -9.499425,-0.68654 -0.611379,-0.32965 -1.266296,-1.0402 -1.49671,-1.68375 z"
       sodipodi:nodetypes="ccccccccccccccccccccccccccc" />
    <path
       id="path931"
       style="fill:#241c1c;stroke:#241c1c;stroke-width:0.264583px;stroke-linecap:butt;stroke-linejoin:miter;stroke-opacity:1;fill-opacity:1"
       d="m 292.51314,199.62361 c -2.02035,-1.06731 -3.67585,-1.62883 -5.23848,-2.89984 -2.00208,-0.81479 -3.59597,-1.88248 -5.16965,-3.17585 -1.06347,-1.35739 -1.20385,-3.09122 -3.71701,-2.99794 -1.38726,-1.54419 -3.01464,-2.3534 -4.82782,-3.2738 -1.85337,-0.81287 -4.42566,-1.5291 -6.11685,-0.18721 -2.3919,0.6942 -3.05696,-2.07086 -5.0288,-2.53795 -2.01784,-0.57975 -3.94483,-0.92515 -5.59561,-2.04012 -2.38961,-0.85934 -5.05638,-1.66761 -7.65937,-0.6608 -2.27234,0.65284 -4.21276,1.91052 -6.22461,2.99381 -1.70863,1.57099 -3.91671,-0.23168 -5.37941,-1.30404 -2.41017,-0.48186 -4.89076,-0.27291 -7.22535,0.45126 -2.55289,0.33189 -4.38737,2.28695 -6.81762,3.15208 -2.08561,1.06573 -5.00254,1.2429 -4.84426,4.26127 -0.56715,1.87279 -0.24031,4.60485 1.72252,5.46943 4.64775,2.55785 10.16469,1.39119 15.22473,1.70098 2.09222,0.16736 3.97833,0.10826 6.33313,0.0781 6.59156,-0.0121 13.1087,1.24425 19.70115,1.28993 5.58486,0.53971 11.20059,0.63553 16.78614,1.11907 3.14223,0.39906 6.31846,0.32075 9.47612,0.48131 1.31385,-0.71172 5.6286,0.21672 4.60145,-1.91951 z" />
    <path
       id="path934"
       style="fill:#241c1c;stroke:#241c1c;stroke-width:0.264583px;stroke-linecap:butt;stroke-linejoin:miter;stroke-opacity:1;fill-opacity:1"
       d="m 55.538671,185.78008 c 3.982534,-0.10982 11.090867,0.26229 14.667978,-0.0681 0.628804,-0.43226 0.715441,-1.33174 0.419323,-1.99078 -0.423639,-0.56788 -0.888915,-0.63156 -1.586766,-0.52436 -0.798959,-0.0924 -0.941734,-1.26317 -1.876628,-1.25883 -0.505719,-0.06 -1.18202,0.0196 -1.494456,-0.41501 -0.217061,-0.60685 -0.58001,-1.2686 -1.287301,-1.39854 -0.544133,-0.18982 -1.005852,-0.0263 -1.671303,0.0504 -0.772402,0.10114 -1.110916,0.45843 -1.602328,0.79165 -0.468102,0.36138 -1.081358,0.454 -1.562484,0.80157 -0.49278,0.31159 -1.183626,0.38518 -1.746704,0.63074 -0.636559,0.18613 -1.015567,0.74018 -1.671388,0.9015 -0.605096,0.34882 -0.498954,0.37448 -1.069241,0.75882 -0.460867,0.32619 -1.870713,0.41197 -2.225654,0.88671 -0.455629,1.13365 1.356362,0.81484 2.706952,0.83426 z"
       sodipodi:nodetypes="cccccccccccccccc" />
  </g>
  <g
     inkscape:label="Land"
     inkscape:groupmode="layer"
     id="layer1"
     style="display:inline;opacity:1">
    <path
       style="fill:#008047;stroke:#008047;stroke-width:1.00157"
       d=""
       id="path28"
       transform="scale(0.26458333)" />
    <path
       style="fill:#008047;fill-opacity:1;stroke:#009947;stroke-width:0.250394;stroke-opacity:1"
       d=""
       id="path855"
       transform="scale(0.26458333)" />
    <path
       style="fill:#007200;fill-opacity:1;stroke:#007200;stroke-width:0.264583px;stroke-linecap:butt;stroke-linejoin:miter;stroke-opacity:1"
       d="m 63.610148,223.00969 c 8.793165,-1.87088 34.050136,-8.98025 44.340012,-13.65747 10.28988,-4.67722 42.39897,-14.54614 54.06862,-15.90254 8.01045,-0.93108 52.56974,-0.97286 57.06205,-0.74835 10.32231,0.51587 55.56534,2.99341 55.56534,2.99341 0,0 3.48332,0.68316 16.19727,2.86113 9.67555,1.65747 34.54249,1.76663 43.10983,4.62242 7.57708,2.5257 53.18797,3.93827 53.18797,3.93827 0,0 24.9921,-0.55593 36.16293,8.14695 3.62643,2.82525 10.22018,9.21347 18.49106,6.05528 12.71585,-4.85548 29.0909,3.12066 29.0909,3.12066 0,0 18.16363,7.08278 37.15314,2.77974 L 508,285.75 H 0 L 0.09249444,250.65553 C 4.5815726,247.61882 54.81698,224.88058 63.610148,223.00969 Z"
       id="path24"
       sodipodi:nodetypes="sssscsscsscccccs" />
  </g>
</svg>
