<?xml version="1.0" encoding="UTF-8" standalone="no"?>
<svg
   xmlns:dc="http://purl.org/dc/elements/1.1/"
   xmlns:cc="http://creativecommons.org/ns#"
   xmlns:rdf="http://www.w3.org/1999/02/22-rdf-syntax-ns#"
   xmlns:svg="http://www.w3.org/2000/svg"
   xmlns="http://www.w3.org/2000/svg"
   xmlns:sodipodi="http://sodipodi.sourceforge.net/DTD/sodipodi-0.dtd"
   xmlns:inkscape="http://www.inkscape.org/namespaces/inkscape"
   width="1920"
   height="1080"
   viewBox="0 0 508 285.75"
   version="1.1"
   id="svg8"
   inkscape:version="1.0.1 (3bc2e813f5, 2020-09-07)"
   sodipodi:docname="leaves.svg">
  <defs
     id="defs2" />
  <sodipodi:namedview
     id="base"
     pagecolor="#ffffff"
     bordercolor="#666666"
     borderopacity="1.0"
     inkscape:pageopacity="0.0"
     inkscape:pageshadow="2"
     inkscape:zoom="0.98994949"
     inkscape:cx="708.87502"
     inkscape:cy="304.52455"
     inkscape:document-units="mm"
     inkscape:current-layer="layer4"
     inkscape:document-rotation="0"
     showgrid="false"
     units="px"
     inkscape:pagecheckerboard="true"
     inkscape:window-width="1920"
     inkscape:window-height="1017"
     inkscape:window-x="1912"
     inkscape:window-y="-7"
     inkscape:window-maximized="1" />
  <metadata
     id="metadata5">
    <rdf:RDF>
      <cc:Work
         rdf:about="">
        <dc:format>image/svg+xml</dc:format>
        <dc:type
           rdf:resource="http://purl.org/dc/dcmitype/StillImage" />
        <dc:title />
      </cc:Work>
    </rdf:RDF>
  </metadata>
  <g
     inkscape:groupmode="layer"
     id="layer2"
     inkscape:label="Foreground">
    <path
       id="path851"
       style="fill:#003b00;stroke:#003b00;stroke-width:0.264583px;stroke-linecap:butt;stroke-linejoin:miter;stroke-opacity:1;fill-opacity:1"
       d="m 399.83521,-0.40090428 c 2.08355,2.61933468 3.38681,4.69210008 0.6668,6.94042088 2.31314,3.8149114 -4.48462,1.563587 -5.07675,4.5521684 4.07428,3.03775 -3.32752,3.910442 -2.22762,0.43633 -2.01907,-1.9399669 2.91386,-4.7074342 -0.71235,-6.3162592 -2.06515,-1.9010191 -4.34256,6.1608312 -5.34537,2.0045214 2.07153,-0.5800686 2.74324,-2.3915091 0.9444,-2.9277043 2.2513,-1.2893471 1.31271,-5.4400919 -0.67715,-1.2149734 -0.88136,3.7477659 -7.71237,1.5375111 -5.44756,6.474817 -0.97347,3.0640175 2.74109,5.9846145 3.2502,2.1201165 3.33428,0.687231 3.81528,7.349306 -0.1834,8.945668 -4.67192,-0.81387 -5.76786,7.173815 -1.22736,8.250906 4.83176,2.827143 5.35582,-2.248857 4.43046,-4.858252 2.08451,0.02628 8.75294,-3.001452 5.96026,1.219908 -1.61011,0.601315 -6.54578,-3.082699 -4.45287,1.47129 5.2508,1.425348 -5.42519,4.51893 -0.42426,6.1141 2.78754,0.268972 2.40291,0.288522 3.84083,2.200154 3.72114,1.217959 3.69037,-2.767918 2.14963,-4.484557 1.86833,0.144145 5.70533,-1.494371 2.39396,-2.865354 -3.57185,-0.568267 0.32287,-3.937607 1.06907,-4.944487 3.16944,0.85576 5.04577,-1.779324 5.3448,-3.837352 1.22525,-3.533453 2.15309,0.189122 0.22035,1.802762 0.48816,2.872522 -1.8866,2.466351 -2.49154,4.573651 -1.2598,3.839839 0.96701,5.006716 4.2763,5.345391 -2.84157,4.076248 3.77424,7.387142 5.61266,3.340868 2.87199,-2.086295 3.80571,3.739201 0.0388,2.45761 -3.53251,0.267798 1.18579,7.305845 -3.98361,5.829016 -4.78883,-0.578834 -1.93856,8.764233 2.4748,4.943215 0.0332,-2.168227 2.67844,-5.445178 4.54358,-2.672694 -2.76242,0.877795 -1.16021,2.574729 -2.00453,4.009043 -2.23697,0.716819 -6.95843,-2.004366 -6.1472,2.405425 -2.61818,1.218282 -2.28188,4.677625 -6.56877,2.995378 -4.58212,1.916328 2.64055,5.709876 3.45935,2.020697 3.79654,1.948681 3.91015,-5.597117 7.79283,-1.909063 1.55813,3.437035 7.27396,-3.454329 6.00737,0.902032 -4.80684,1.398786 -0.23676,7.751212 0.33827,10.71166 0.67338,1.931399 4.13471,-3.285363 3.4892,-6.380421 0.63512,-3.291375 -2.3201,-4.458756 1.7937,-4.757564 3.21281,-0.367688 -0.42678,-8.115907 2.67803,-6.778387 1.696,1.944004 1.22898,-3.386727 2.25794,1.191148 1.06111,2.014151 -0.56921,8.618152 2.73832,6.586887 -0.99361,-5.88244 6.92087,-3.576905 9.02154,-7.655965 0.0421,-2.845414 1.37806,-4.74663 -0.61476,-6.676391 5.38385,-0.597739 0.30561,6.21869 0.10842,8.833393 -1.31921,1.969237 -4.6308,3.074265 -2.70089,6.796527 -2.27549,2.726849 -0.57245,5.336158 1.46997,5.746295 -3.25517,1.993951 -2.60075,4.807829 -1.55865,7.149879 -3.30334,2.460606 3.06654,7.235357 -2.31675,8.351751 1.19496,1.16094 -1.04767,3.47726 2.50926,1.929039 3.82125,-2.252652 2.99663,2.042311 -0.37108,2.21364 0.45336,3.855391 -1.80436,7.314613 -0.61355,11.935503 1.56233,4.382155 4.40076,-0.0067 2.08352,-2.3138 0.75595,-2.607516 4.85876,2.407229 4.46306,-2.370356 -0.3128,-1.484414 -3.87892,-2.539831 -0.84413,-3.408035 2.43253,-1.484713 4.04125,-3.263397 5.60188,-5.847835 1.21267,-1.15361 3.96882,-1.419079 2.53904,-4.142676 4.11825,-3.167028 -4.55766,-1.676896 -2.57711,-3.60754 2.93449,-0.06271 4.14765,-0.161073 2.90032,-2.738402 2.10336,-2.297733 1.63881,-5.797299 -0.85774,-7.552073 -4.63955,-1.871265 -0.54559,-4.908346 2.67268,-2.806329 1.1489,-2.306022 1.37925,-4.734379 4.81087,-3.34087 -0.21808,-3.054159 4.45567,1.866152 4.00905,-2.405425 -4.51082,-3.895075 4.44705,1.846983 2.67268,-2.806332 2.46471,-1.282167 3.99972,3.614251 4.94381,-0.974716 -0.44928,-2.680931 -1.07498,-5.253235 -3.07291,-7.177004 -2.59345,-1.710696 -2.95297,-1.775305 -2.62236,1.820502 -0.85009,2.674293 -3.87477,-1.158868 -5.2729,2.296925 -3.23118,-3.011573 3.6121,-4.11335 4.32405,-5.921272 -2.4853,-2.166816 -3.76579,-5.876495 0.0292,-7.192094 -2.46203,-2.944033 2.89609,-4.469779 3.58619,-5.673823 -1.84854,-4.484059 2.64763,-5.929881 6.103,-5.375452 -0.90773,-4.381056 5.39759,0.733009 4.94449,3.340869 0.0507,2.281169 3.89133,5.395865 3.33845,0.544588 -2.33423,-4.763408 4.53464,-2.522033 4.38339,-6.035564 1.45412,-1.62407 4.2528,-3.115649 3.32592,-6.678197 1.69552,-4.8726864 1.73446,-10.0076852 1.78118,-15.0923186 -1.00241,-5.4595282 -8.0478,-1.5202109 -11.82511,-2.499753 -8.15267,0.20376 -16.31528,0.4653111 -24.46125,-0.2513723 -10.4392,-0.4922797 -20.88969,-1.0210959 -31.26765,-2.220856 -8.35319,-0.2063212 -16.69656,-0.796664 -25.05489,-0.5070441 0.66845,2.3717375 2.28194,4.9180062 3.60814,6.41446872 z" />
    <path
       id="path860"
       style="fill:#002b00;stroke:#002b00;stroke-width:0.264583px;stroke-linecap:butt;stroke-linejoin:miter;stroke-opacity:1;fill-opacity:1"
       d="m 378.26367,22.109998 c 0.0159,-0.39234 -0.29167,-0.896219 -0.67482,-1.168128 -0.38315,-0.271909 -0.97804,-0.911164 -1.52674,-1.166578 -0.47138,-0.371252 -0.84555,-0.866114 -0.974,-1.496031 -0.48127,-0.648623 -1.41587,0.189429 -2.02566,-0.230886 -0.45983,-0.700522 0.94133,-0.885883 0.70246,-1.577063 -0.10021,-0.487241 -0.15726,-1.06719 -0.419,-1.16326 -0.25877,-0.538844 -0.64707,-1.23833 -1.34514,-0.850998 -0.86778,0.226626 -1.78362,0.110433 -2.67272,0.122781 -0.66138,-0.219136 -1.48106,-0.235532 -2.04677,-0.614493 -0.59946,-0.125487 -1.07652,0.488705 -1.49045,0.687386 -0.39075,0.355931 -1.30135,0.07257 -1.36556,0.840118 -0.11958,0.663713 -0.32716,1.05794 -0.47784,1.661935 -0.36469,0.769775 0.18014,1.326438 0.33471,2.026606 0.0794,0.887307 1.22345,0.312046 1.76802,0.220498 0.65095,-0.195058 1.30742,-0.520502 2.00275,-0.317762 0.64665,0.0047 1.656,0.661167 1.02491,1.304451 -0.49979,0.195608 -0.82517,0.60682 -1.4383,0.617096 -0.67853,0.0708 -0.9185,0.770027 -0.72801,1.362708 0.32004,0.52923 0.5816,1.064442 1.17035,1.421472 0.45876,0.247448 1.30417,0.214397 1.67894,-0.118874 0.0822,-0.361449 0.23303,-1.131257 0.91678,-1.107596 0.62076,0.31499 0.58726,1.213952 0.81951,1.798903 0.30562,0.543193 0.31699,1.126685 0.72384,1.601656 0.39747,0.499402 0.81435,0.757648 1.14338,1.190119 0.55054,0.331348 1.57796,0.528233 1.77706,-0.317733 0.3981,-0.520496 0.0751,-1.263554 0.37625,-1.848583 0.25828,-0.533241 0.48813,-1.089264 0.98022,-1.294094 0.64247,-0.711527 1.8172,-0.391882 1.76583,-1.58365 z"
       sodipodi:nodetypes="czccccccccccccccccccccccccccc" />
    <path
       id="path863"
       style="fill:#003b23;stroke:#003b23;stroke-width:0.264583px;stroke-linecap:butt;stroke-linejoin:miter;stroke-opacity:1;fill-opacity:1"
       d="m 382.18117,14.977306 c -0.65494,-0.263508 -1.36405,-0.364408 -2.01134,-0.648287 -0.39736,-0.106417 -0.81306,-0.08682 -1.21392,-0.174825 -0.41299,-0.06028 -0.83369,-0.01408 -1.23392,0.09032 -0.56185,0.04203 -1.15703,0.33083 -1.39377,0.865749 -0.0373,0.402362 -0.13356,0.795178 -0.25558,1.182372 -0.0663,0.425153 0.0967,0.828803 0.18126,1.232841 0.14623,0.461413 0.5052,0.812826 0.70407,1.250008 0.23125,0.315483 0.61204,0.610741 1.02534,0.438427 0.37501,-0.02415 0.57668,-0.328396 0.85681,-0.506963 0.20513,-0.152653 0.54045,-0.344261 0.81327,-0.477347 0.36867,-0.151252 0.93824,-0.216618 1.19193,0.159277 0.35027,0.514311 0.56298,1.170965 1.12878,1.500483 0.37765,0.06014 0.6822,0.338579 1.06737,0.362987 0.37286,-0.02239 0.36918,-0.529751 0.49968,-0.800731 0.28698,-0.385774 0.0286,-0.875805 0.12726,-1.306013 0.0526,-0.403272 -0.13776,-0.796862 -0.46649,-1.028989 -0.27366,-0.254351 -0.44865,-0.598901 -0.53622,-0.95685 -0.10883,-0.313476 -0.18987,-0.618538 -0.17205,-0.955335 -0.0261,-0.156384 -0.21057,-0.144444 -0.31248,-0.227119 z" />
    <path
       id="path867"
       style="fill:#003b00;stroke:#003b00;stroke-width:0.264583px;stroke-linecap:butt;stroke-linejoin:miter;stroke-opacity:1;fill-opacity:1"
       d="m 371.30153,11.901224 c 0.93649,-0.532517 0.58838,-0.826976 0.78978,-1.289661 0.17439,-0.277881 0.42449,-0.03921 0.74329,-0.300097 0.3188,-0.260892 0.66813,-0.6685641 0.66967,-1.1299848 -0.17339,-0.415469 -0.42014,-0.7337373 -0.73764,-1.0600133 -0.28479,-0.3491827 -0.7257,-0.4020291 -1.05224,-0.6071725 -0.35858,-0.2748089 -0.82491,-0.5208075 -1.30026,-0.5258342 -0.52827,-0.1188605 -0.93047,0.3538404 -1.44567,0.3581489 -0.55328,0.071714 -1.11922,0.1392232 -1.6595,0.2024172 -0.44502,0.1030757 -0.32466,0.8139973 -0.6721,1.0499372 -0.34744,0.2359399 -0.28346,0.4953895 0.0235,0.6142116 0.27954,0.203998 0.6363,0.2820278 1.05248,0.2377688 0.44911,0.029063 0.87899,0.086821 1.23911,0.3291948 0.29054,0.5892653 -0.58555,0.7343353 -0.99646,0.6843253 -0.54034,0.07852 -0.94544,-0.428652 -1.46033,-0.400846 -0.25937,-0.090972 -0.82045,-0.081819 -1.21026,-0.05856 -0.49798,0.08336 -1.22227,0.278743 -1.56709,0.369413 -0.4454,0.140955 -0.44641,0.809725 -0.89197,0.780158 -0.39445,0.01015 -0.8857,-0.145595 -1.2028,0.153022 -0.23957,0.247039 -0.37495,0.66172 -0.4669,0.929327 -0.19546,0.527835 0.28799,0.937172 0.79919,0.889909 0.44803,0.09861 0.88898,0.174099 1.34771,0.169661 0.5895,0.04333 1.18516,0.08791 1.77459,0.02712 0.32074,-0.102161 0.61822,0.04267 0.95875,0.03556 0,0 0.92932,0.04704 1.26223,-0.328143 0.35344,-0.226301 0.43473,-0.560058 0.43066,-0.971623 0.36596,-0.287465 0.96521,-0.283904 1.41167,-0.153199 0.4015,0.597903 1.2241,0.527477 2.16059,-0.005 z"
       sodipodi:nodetypes="zczcccccczcccccccccccccscccz" />
    <path
       style="fill:#003300;stroke:#003300;stroke-width:0.264583px;stroke-linecap:butt;stroke-linejoin:miter;stroke-opacity:1;fill-opacity:1"
       d="m 378.82663,-0.49609374 c -0.94493,3.89787944 -0.37799,4.51209064 0.77957,4.60658464 1.15755,0.094494 1.7009,-0.6378347 2.19699,0.2834823 0.49609,0.921317 1.60639,0.9685639 2.40961,0.2598587 0.8032,-0.7087055 1.86624,-0.1417413 1.13393,-1.6300225 -0.73234,-1.4882812 -0.85045,-1.6536457 -0.8032,-2.33872757 0.0472,-0.68508183 0.0945,-1.18117555 0.0945,-1.18117555 z"
       id="path875"
       sodipodi:nodetypes="cssssscc" />
    <path
       id="path1457"
       style="opacity:1;fill:#843c16;fill-opacity:1;stroke:#843c16;stroke-width:0.426561px;stroke-linecap:butt;stroke-linejoin:miter;stroke-opacity:1"
       d="m 524.44497,292.54514 c -3.67907,-8.15923 -3.52953,-16.82565 -6.46469,-25.12369 -0.84249,-11.36144 -1.43491,-22.7016 -0.69889,-34.09898 0.77693,-8.4127 -3.52552,-16.09642 -2.44604,-24.47957 0.42863,-7.73827 5.07181,-15.89583 2.27142,-23.95213 0.13971,-6.8885 -4.57436,-1.82017 -4.71747,-4.16559 -1.7321,-8.17838 3.81729,-15.9134 2.44576,-24.18964 -0.48842,-9.3394 -0.71213,-18.6385 -0.69889,-28.01036 5.40923,-1.82596 -1.95956,-10.84234 1.57271,-15.23043 -2.55868,-9.16856 0.70307,-18.210101 -0.17483,-27.505722 -0.8919,-7.773243 -1.28104,-15.49806 1.5724,-22.871836 1.1979,-12.923718 -7.45602,-24.874175 -5.76552,-37.750638 -0.89433,-7.440696 -7.06008,-14.692539 -2.4461,-22.3900269 9.05235,-13.5435451 -15.31276,-8.6768375 -25.33467,-8.9820475 -9.01963,7.1626073 2.72052,17.9554194 0.16866,26.6396884 -0.26827,11.008334 -2.05407,22.040508 0.52991,32.980271 1.46417,9.755816 -0.0414,19.926399 1.33113,29.377547 -2.00056,11.839185 -0.096,24.275234 2.1632,36.100284 -0.94509,7.45727 2.7897,15.33062 -1.22304,22.25985 -0.8356,8.40312 0.41024,17.27129 -1.39755,26.16509 1.43838,5.42745 1.80888,10.87562 2.87176,16.37474 3.61889,18.70915 -3.44174,34.27737 -0.5915,53.04846 -1.75656,6.12746 0.71831,11.97645 -1.09976,20.904 -1.81806,8.92755 1.76814,10.92769 1.76814,10.92769 -3.34623,6.90929 -5.43722,16.35474 -6.28027,25.39214 5.05503,3.71369 1.32373,6.63852 6.27007,9.2409 7.075,3.73861 20.10285,-1.64864 26.76977,-3.51571 2.4457,-1.3179 9.01912,-4.37753 9.60422,-7.14429 z"
       sodipodi:nodetypes="sccccccccccccccccccccczccccss" />
    <path
       id="path1460"
       style="fill:#2a1a16;fill-opacity:1;stroke:none;stroke-width:0.439615px;stroke-linecap:butt;stroke-linejoin:miter;stroke-opacity:1"
       d="m 491.34314,260.93813 c -1.69241,-10.67027 0.203,-21.40246 1.56443,-31.99261 1.48502,-9.01609 3.88356,-18.14487 1.56466,-27.29872 0.0568,-10.45212 -0.46999,-20.8457 0.58662,-31.23693 0.34103,-9.20276 -1.78765,-18.6319 2.90799,-27.58054 2.30583,-9.44035 -4.60246,-18.12853 -3.25431,-27.63115 0.36997,-7.59328 1.14519,-14.9526 -1.21808,-22.375655 -6.27988,-4.897037 0.72566,-12.974724 -0.58651,-18.899111 -0.61352,-8.698437 -4.36709,-18.26667 2.5422,-26.310532 1.25303,-8.282056 1.90308,-16.770066 3.09688,-25.140243 -0.0657,-7.148964 4.33243,-14.1126892 3.94331,-20.9340574 -2.38923,-7.8932715 12.06672,-9.8981227 19.16576,-5.5585619 5.44377,2.6517191 -7.66963,4.06950846 -4.10699,8.6466509 1.13692,7.4662084 -2.53505,14.4714754 -2.34668,21.8636754 1.28528,7.816373 1.5853,15.917077 -0.39087,23.593002 -3.11164,8.721792 -0.32494,17.188412 -0.22814,25.957042 -2.76459,10.47266 -1.09586,21.167457 -2.90096,31.72848 -3.82947,10.54756 -3.30566,21.81266 0.97807,32.23967 1.12285,7.05265 3.27813,15.28668 1.80547,22.88394 -1.35803,9.51408 -3.2027,18.97779 -4.6451,28.43593 1.29388,10.51246 0.88674,21.25421 -0.48512,31.81151 -2.36219,8.34837 4.07742,18.33157 2.34013,26.7822 -0.36558,6.7055 9.72487,11.2862 6.30438,17.49933 2.27034,9.04095 -2.10971,15.04107 -5.57257,22.01534 5.25801,5.61302 -19.55306,4.94198 -25.18196,-1.75385 1.19303,-11.89409 4.98306,-21.1293 4.11739,-26.74481 z"
       sodipodi:nodetypes="cccccccccccccccccccccccccc" />
    <path
       id="path862"
       style="fill:#1d320d;stroke:#1d320d;stroke-width:0.264583px;stroke-linecap:butt;stroke-linejoin:miter;stroke-opacity:1;fill-opacity:1"
       d="m 458.86309,93.549106 c -0.56389,-1.465245 -0.92578,-3.261754 -2.59129,-3.735944 -1.34179,0.9184 0.91798,3.143429 -0.90497,3.452459 -1.23094,0.348833 -3.22673,1.396017 -2.71346,-0.917012 0.39655,-1.318208 -0.14294,-1.536072 -1.20584,-0.918679 -1.86269,0.303667 -4.14216,-0.17179 -3.5311,-2.608349 0.56972,-1.872571 -0.80912,-2.959147 -1.95444,-3.83094 -0.37293,-1.537007 2.66871,-1.629914 2.99871,-1.063065 0.43214,0.265268 2.69966,2.73701 3.66582,0.928076 -0.40394,-0.830898 -0.10364,-1.879909 -1.52439,-1.288159 -2.11026,0.665098 -1.95798,-2.270154 -1.69761,-3.395937 0.74384,-1.132491 0.1031,-3.089861 1.8444,-3.310042 0.7846,-0.358542 1.78446,1.698383 1.60146,-0.129588 -0.45573,-1.847163 -0.97282,-3.617201 -0.70153,-5.559069 -0.551,-1.829137 1.18662,-3.495236 2.93455,-2.475685 -0.37218,-1.975317 1.50607,-3.131349 1.56396,-4.830437 0.15671,-1.562052 -1.80967,0.735618 -2.13091,0.956174 -1.44824,1.259031 -2.33823,-1.001615 -3.11828,-1.700894 -0.91603,-1.408545 0.7538,-1.819826 1.88981,-2.173363 0.11908,-1.462074 0.24279,-3.500815 1.99175,-3.905499 0.91642,-0.970231 1.49,-0.144862 1.44704,0.852513 0.88723,-0.750474 1.6479,-0.995922 2.13636,0.218166 1.45981,0.505306 3.89466,-0.02082 4.80282,-0.749146 -1.71237,-1.178708 -0.30843,-2.209153 0.69036,-3.119597 0.37052,-1.550438 2.13603,-1.566401 3.51543,-1.878338 1.36376,-0.204904 4.39684,-2.805196 4.53457,-0.0055 -0.18245,1.332139 -1.22858,3.098541 1.04782,2.591321 1.87896,-1.379942 2.46029,1.854589 0.96385,2.656721 -1.43714,1.102777 -3.22307,1.498314 -4.99942,1.593512 -1.27288,0.09921 -4.0656,-1.406556 -3.84637,0.800943 1.6242,0.771935 3.30964,0.528781 4.96114,0.830123 1.7588,-0.003 3.49293,0.368977 5.24421,0.114813 0.86193,-0.286987 2.65115,-1.399993 3.83547,-0.257254 1.56222,0.581604 2.38576,2.335218 0.21763,2.873581 -1.62762,0.351371 -2.12718,2.272963 -3.29822,3.152935 -0.19575,1.06445 -2.2318,0.796488 -3.3256,0.390618 -1.374,0.119943 -2.27272,2.18902 -3.49899,2.348128 0.91297,1.98672 -2.37549,1.252551 -3.51278,1.036889 -1.51563,0.361147 -1.88119,-1.63666 -3.17419,-1.134923 -0.21186,2.106279 2.404,1.81417 3.81638,2.194622 1.09191,-0.248304 1.18105,2.058489 2.36497,0.436356 1.33657,-0.370349 3.0317,-0.223295 3.55155,-1.875026 0.8671,-1.054888 2.68395,-0.95998 1.90193,0.900882 -0.16327,1.601854 2.591,1.740182 1.87322,3.596273 0.67306,2.113297 -1.45732,1.720554 -2.71329,1.601617 -1.25597,-0.118937 -2.77886,-0.546377 -2.95172,0.799302 0.53701,0.728823 1.59624,2.529219 0.43275,3.141229 -5.83119,0.326971 -3.30146,3.157146 -4.59047,5.646718 -0.61834,0.515921 -3.3778,1.534298 -1.73225,2.511564 0.9293,0.559602 1.33097,1.549416 0.59839,2.685599 -1.50309,1.089184 -2.69123,-1.023508 -3.89199,-0.273634 -1.76337,0.102956 -0.77171,3.123282 -2.81709,2.824974 z"
       sodipodi:nodetypes="cccccccccccccccccccccccccccccccccccccccccccczccccccsc" />
    <path
       id="path860-0"
       style="fill:#002b00;fill-opacity:1;stroke:#002b00;stroke-width:0.264583px;stroke-linecap:butt;stroke-linejoin:miter;stroke-opacity:1"
       d="m 76.07394,4.1409183 c 0.17017,0.3538725 0.678309,0.6543538 1.144266,0.7145351 0.465958,0.060183 1.29134,0.3452905 1.895721,0.3131813 0.590501,0.1064689 1.153209,0.3677193 1.562374,0.8635799 0.729462,0.3467254 1.16117,-0.8320191 1.896912,-0.7472154 0.7349,0.4026147 -0.415192,1.2241356 0.12023,1.7222444 0.317243,0.3831481 0.639907,0.8684147 0.91611,0.8303475 0.481468,0.3542641 1.152725,0.7895473 1.587213,0.1198098 C 85.856548,7.349874 86.719721,7.0224664 87.498933,6.5941213 88.18577,6.4770767 88.917185,6.1067039 89.594592,6.1756912 90.182789,6.0050335 90.315627,5.2387621 90.587814,4.8689965 90.765704,4.371274 91.702738,4.1939236 91.399058,3.486088 91.193017,2.8439341 91.1912,2.3983986 91.040657,1.7943704 91.001234,0.94348959 90.258829,0.70780116 89.793618,0.16217593 89.306913,-0.58397067 88.566893,0.46108712 88.12906,0.79759919 87.645901,1.2754487 87.219087,1.8710129 86.509972,2.018473 85.936821,2.3179329 84.737421,2.2122224 84.992598,1.3479469 c 0.349437,-0.40736461 0.443655,-0.92320423 0.980179,-1.22014969 0.56585,-0.38108887 0.449431,-1.11112348 0.003,-1.54497901 -0.531052,-0.3170095 -1.013278,-0.6667568 -1.700731,-0.705563 -0.521231,-0.00309 -1.252148,0.4230261 -1.426567,0.8932396 0.09713,0.35772577 0.32539,1.10822683 -0.28942,1.40836356 -0.695977,0.013341 -1.088472,-0.7961048 -1.568173,-1.20352936 -0.524903,-0.3361073 -0.808899,-0.8459494 -1.391122,-1.074293 -0.585411,-0.2543184 -1.074735,-0.2866006 -1.568294,-0.5139572 -0.641658,-0.034071 -1.641234,0.2744796 -1.419834,1.114885 -0.107114,0.64647217 0.526945,1.1508854 0.53573,1.80881631 0.02232,0.59207798 0.08044,1.19092259 -0.25787,1.60281429 -0.233184,0.929873 -1.420461,1.1991994 -0.815556,2.2273239 z"
       sodipodi:nodetypes="czccccccccccccccccccccccccccc"
       inkscape:transform-center-x="-0.26645848"
       inkscape:transform-center-y="0.26869276" />
    <path
       id="path862-1"
       style="fill:#003b23;fill-opacity:1;stroke:#003b23;stroke-width:0.264583px;stroke-linecap:butt;stroke-linejoin:miter;stroke-opacity:1"
       d="m 55.971082,56.031982 c -0.24593,1.55062 -0.83262,3.286768 0.37134,4.531463 1.62136,-0.12274 0.7801,-3.180457 2.51265,-2.534768 1.24011,0.31469 3.49201,0.408091 1.88914,2.15289 -1.00353,0.942267 -0.64574,1.401067 0.58346,1.399144 1.76426,0.670235 3.49896,2.223569 1.74958,4.026304 -1.4311,1.335318 -0.78201,2.966429 -0.22744,4.294674 -0.44715,1.517079 -3.12621,0.07387 -3.12787,-0.582034 -0.24114,-0.446055 -0.96552,-3.721176 -2.70786,-2.639523 -0.0666,0.921478 -0.85198,1.678966 0.67409,1.878489 2.15958,0.481432 0.55746,2.945594 -0.23182,3.78953 -1.21107,0.607561 -1.637,2.622612 -3.25438,1.940927 -0.85867,-0.0827 -0.69369,-2.36381 -1.45097,-0.690043 -0.53084,1.826992 -0.96995,3.617971 -2.17747,5.162751 -0.43936,1.859114 -2.77784,2.430707 -3.77995,0.67272 -0.66736,1.896058 -2.87205,1.955745 -3.77326,3.397297 -0.91809,1.273448 1.93475,0.269827 2.32326,0.239852 1.88411,-0.364233 1.522,2.038156 1.84684,3.034119 0.0872,1.677945 -1.56399,1.197457 -2.7243,0.934392 -0.83544,1.205767 -1.96375,2.908317 -3.68018,2.382482 -1.27917,0.380675 -1.36216,-0.620994 -0.82537,-1.462697 -1.14382,0.205101 -1.92513,0.0365 -1.73972,-1.258964 -1.01034,-1.168586 -3.38124,-1.932889 -4.53208,-1.757442 0.89161,1.877924 -0.839661,2.066508 -2.160167,2.354179 -1.097326,1.156295 -2.633361,0.285734 -3.983479,-0.135254 -1.282967,-0.50579 -5.210616,0.225421 -3.9274,-2.266691 0.825203,-1.061566 2.615447,-2.066351 0.39116,-2.767647 -2.317468,0.253126 -1.200369,-2.837541 0.496595,-2.782187 1.796238,-0.234557 3.540082,0.317714 5.125189,1.125128 1.151367,0.551744 2.814183,3.253902 3.730219,1.233508 -1.019059,-1.481698 -2.599598,-2.115518 -3.878014,-3.203595 -1.523734,-0.87842 -2.838283,-2.069022 -4.481321,-2.726295 -0.889753,-0.18337 -2.995839,-0.116324 -3.448441,-1.698606 -1.060756,-1.285921 -0.895107,-3.21619 1.251073,-2.596084 1.584704,0.511197 2.979632,-0.901691 4.433956,-1.076707 0.702623,-0.82322 2.330585,0.428596 3.073955,1.327779 1.24927,0.584453 3.063548,-0.756136 4.204575,-0.279582 0.20502,-2.176818 2.6834,0.105852 3.55969,0.862197 1.49267,0.446637 0.80833,2.358843 2.17874,2.572281 1.23844,-1.716847 -1.1719,-2.774362 -2.20373,-3.81113 -1.06942,-0.332052 0.009,-2.373221 -1.82829,-1.562321 -1.34231,-0.348978 -2.735769,-1.325376 -4.013079,-0.156215 -1.278883,0.478653 -2.803816,-0.513583 -1.194841,-1.73242 0.943708,-1.304611 -1.370806,-2.803998 0.18018,-4.050885 0.476061,-2.166195 2.12316,-0.759131 3.15062,-0.02705 1.02745,0.73208 2.13139,1.86487 2.95508,0.786781 -0.0997,-0.899789 -0.1146,-2.988611 1.19896,-2.935489 5.21064,2.637963 4.43887,-1.078728 6.80157,-2.587747 0.7936,-0.13679 3.69203,0.364077 2.75734,-1.306029 -0.52399,-0.949836 -0.37581,-2.007718 0.82737,-2.624114 1.8465,-0.189754 1.81655,2.233926 3.23142,2.186398 1.57776,0.794199 2.23243,-2.316619 3.85326,-1.033864 z"
       sodipodi:nodetypes="cccccccccccccccccccccccccccccccccccccccccccczccccccsc" />
    <path
       id="path862-5"
       style="fill:#003b00;fill-opacity:1;stroke:#003b00;stroke-width:0.509478px;stroke-linecap:butt;stroke-linejoin:miter;stroke-opacity:1"
       d="m 12.026123,14.421015 c 3.132994,-0.600267 6.870261,-0.744949 8.352432,-3.600652 -1.428469,-2.6660323 -6.629177,0.764196 -6.67681,-2.5941128 -0.314825,-2.3070673 -1.796516,-6.1829573 2.706085,-4.6119423 2.533215,1.082033 3.142919,0.175072 2.233432,-1.905885 -0.02427,-3.42812 1.654303,-7.385284 6.375153,-5.604065 3.596517,1.548566 6.223164,-0.620613 8.34293,-2.431063 3.217418,-0.237406 2.444406,5.247248 1.197049,5.68019995 -0.671409,0.700989 -6.372102,4.07580605 -3.0291,6.31794525 1.803204,-0.491455 3.82392,0.3422083 3.079134,-2.3737462 -0.674994,-3.97396205 5.196419,-2.87595505 7.384567,-2.092377 2.049024,1.6531 6.198745,1.053189 6.092979,4.2400054 0.475338,1.5087888 -3.988547,2.7252059 -0.24431,2.9104022 3.869049,-0.2988546 7.601941,-0.729496 11.432429,0.3029745 3.862781,-0.4748906 6.674146,3.111583 4.066129,5.961966 4.101118,-0.112912 5.839436,3.58263 9.247694,4.163917 3.100697,0.720127 -0.912123,-3.454337 -1.255487,-4.092808 -2.081807,-2.952775 2.758229,-3.914779 4.414754,-5.1181847 3.129832,-1.2481508 3.43202,1.8640977 3.786309,4.0021237 2.910954,0.624505 6.983405,1.419346 7.247305,4.671748 1.667302,1.917224 -0.178325,2.71467 -2.17615,2.357338 1.233339,1.803093 1.488156,3.237161 -1.114513,3.772629 -1.479972,2.477809 -1.187725,6.995236 -0.0057,8.829667 2.91776,-2.741848 4.552566,0.06721 6.073289,2.115446 3.009766,1.10057 2.484511,4.273452 2.678055,6.83658 -0.01735,2.504986 4.268942,8.678787 -1.420668,8.139319 -2.628905,-0.70172 -5.860885,-3.075425 -5.556736,1.152338 2.189647,3.759721 -4.516953,3.894164 -5.662116,0.983262 -1.770194,-2.888952 -2.003975,-6.20513 -1.635089,-9.419729 0.201819,-2.312195 4.120275,-6.900952 -0.400791,-7.127767 -2.069584,2.697908 -2.111385,5.790933 -3.240548,8.670057 -0.549278,3.157197 -1.846982,6.164769 -1.887369,9.379042 0.306618,1.627462 1.986276,5.15113 -0.692217,6.955442 -1.666178,2.64016 -5.462704,3.625374 -5.863846,-0.416836 -0.194695,-3.019663 -3.91222,-4.456091 -5.317106,-6.804897 -2.084861,-0.65038 -0.901594,-4.228996 0.262281,-6.077902 0.19194,-2.499492 -3.696984,-4.693696 -3.630669,-6.939074 -4.294867,1.080209 -1.775965,-4.615005 -0.981948,-6.595398 -0.249772,-2.821434 3.89461,-2.916143 3.291018,-5.377544 -4.180821,-0.972012 -4.417666,3.804505 -5.630872,6.232276 0.155993,2.029317 -4.524247,1.541142 -1.626719,4.12159 0.324869,2.502676 -0.506922,5.503451 2.659971,6.90047 1.853602,1.8525 1.088547,5.086364 -2.41732,3.160093 -3.178898,-0.743082 -4.327502,4.160885 -7.84403,2.351242 -4.474385,0.614099 -3.009692,-3.098747 -2.373268,-5.319301 0.636426,-2.220558 1.97928,-4.833448 -0.67996,-5.521763 -1.639366,0.758943 -5.604657,2.153981 -6.47153,-0.105991 1.181746,-10.556566 -5.324592,-6.811896 -9.938291,-9.824665 -0.84522,-1.254637 -2.027689,-6.49292 -4.518107,-3.814388 -1.421965,1.510494 -3.544938,1.953224 -5.604961,0.319295 -1.721957,-3.003489 2.913834,-4.542126 1.780701,-6.907713 0.349145,-3.193484 -6.055034,-2.262472 -4.807621,-5.84931 z"
       sodipodi:nodetypes="cccccccccccccccccccccccccccccccccccccccccccczccccccsc" />
    <path
       id="path1457-0"
       style="opacity:1;fill:#843c16;fill-opacity:1;stroke:#843c16;stroke-width:0.426561px;stroke-linecap:butt;stroke-linejoin:miter;stroke-opacity:1"
       d="m -7.9258845,-0.9336349 c 3.67908,8.1592199 3.52954,16.8256399 6.46469,25.1236899 0.8425,11.36144 1.43492,22.7016 0.6989,34.09897 -0.77694,8.4127 3.52552,16.09642 2.44603,24.47957 -0.42863,7.73827 -5.0718,15.895835 -2.27142,23.952135 -0.13971,6.8885 4.57437,1.82017 4.71748,4.16559 1.7321,8.17838 -3.8173,15.9134 -2.44577,24.18964 0.48843,9.3394 0.71213,18.6385 0.69889,28.01036 -5.40923,1.82596 1.95956,10.84234 -1.57271,15.23043 2.55868,9.16856 -0.70307,18.2101 0.17484,27.50572 0.8919,7.77324 1.28103,15.49806 -1.5724,22.87184 -1.19791,12.92372 7.45601,24.87417 5.76551,37.75063 0.89434,7.4407 7.0600795,14.69254 2.4460995,22.39003 -9.0523395,13.54355 15.31276,8.67684 25.334672,8.98205 9.01963,-7.16261 -2.720522,-17.95542 -0.16866,-26.63969 0.26827,-11.00833 2.05407,-22.04051 -0.52991,-32.98027 -1.464172,-9.75582 0.0414,-19.9264 -1.331132,-29.37755 2.000562,-11.83918 0.096,-24.27523 -2.1632,-36.10028 0.94509,-7.45727 -2.7897,-15.33062 1.22304,-22.25985 0.8356,-8.40312 -0.41024,-17.27129 1.39755,-26.16509 -1.43838,-5.42745 -1.80888,-10.87562 -2.87176,-16.37474 -3.61888,-18.709155 3.441742,-34.277375 0.5915,-53.048465 1.75656,-6.12746 -0.71831,-11.97644 1.09976,-20.90399 1.818062,-8.92754 -1.76814,-10.92768 -1.76814,-10.92768 3.34623,-6.90931 5.437222,-16.35475 6.280272,-25.3921499 -5.055032,-3.71369 -1.32373,-6.63852 -6.270072,-9.2409101 -7.07499,-3.73859 -20.10284,1.6486401 -26.7697595,3.5157301 -2.4457,1.31789 -9.01912,4.37753 -9.60423,7.14428 z"
       sodipodi:nodetypes="sccccccccccccccccccccczccccss" />
    <path
       id="path1460-5"
       style="fill:#2a1a16;fill-opacity:1;stroke:none;stroke-width:0.439616px;stroke-linecap:butt;stroke-linejoin:miter;stroke-opacity:1"
       d="m 21.149515,25.147505 c 1.6924,10.67026 -0.203,21.40244 -1.56444,31.99259 -1.48502,9.01609 -3.88356,18.14487 -1.56466,27.29872 -0.0568,10.452125 0.46999,20.845705 -0.58662,31.236935 -0.34103,9.20276 1.78765,18.6319 -2.90799,27.58054 -2.30583,9.44035 4.60246,18.12853 3.25431,27.63115 -0.36997,7.59328 -1.14519,14.9526 1.21808,22.37565 6.27988,4.89704 -0.72566,12.97473 0.58651,18.89912 0.61353,8.69843 4.36709,18.26666 -2.5422,26.31053 -1.25303,8.28205 -1.90308,16.77006 -3.09688,25.14024 0.0657,7.14896 -4.33243,14.11269 -3.94331,20.93406 2.38923,7.89327 -12.0667095,9.89812 -19.1657495,5.55856 -5.4437805,-2.65172 7.66963,-4.06951 4.10698,-8.64665 -1.13692,-7.46621 2.53505,-14.47148 2.34668,-21.86368 -1.28528,-7.81637 -6.1191368,-16.31683 -4.1429668,-23.99275 3.11164,-8.72179 0.32494,-17.18841 0.22814,-25.95704 2.76458,-10.47266 1.09585,-21.16746 2.90096,-31.72848 3.82945946,-10.54756 3.30564946,-21.81266 -0.97808,-32.23967 -1.12285,-7.05265 1.2557168,-14.88693 2.7283768,-22.48419 1.35803,-9.51408 -2.4668775,-19.00502 -1.0244775,-28.463157 -1.29387,-10.512465 -0.88673,-21.254215 0.4851295,-31.811515 2.36218,-8.34837 -4.0774195,-18.33157 -2.3401395,-26.78219 0.36558,-6.7055 -4.0552825,-11.258973 -0.6348025,-17.472103 -2.27034,-9.04094 2.10971,-15.04108 5.57258,-22.01534 -5.25802,-5.6130299 19.5530495,-4.9419899 25.1819495,1.75384 -1.19303,11.89411 -4.98306,21.12931 -4.11738,26.74483 z"
       sodipodi:nodetypes="cccccccccccccccccccccccccc" />
    <path
       id="path862-7"
       style="fill:#1d4e0d;fill-opacity:1;stroke:#1d4e0d;stroke-width:0.48781px;stroke-linecap:butt;stroke-linejoin:miter;stroke-opacity:1"
       d="m 250.03312,16.771278 c 2.95467,-1.366234 6.79451,-2.586382 6.77295,-5.076342 -2.96963,-1.484498 -6.53104,2.528161 -8.43449,0.134889 -1.6035,-1.559841 -5.29668,-3.8957632 0.2928,-4.1145901 3.25406,0.018937 3.39297,-0.813375 1.29058,-2.0334807 -1.91749,-2.4502979 -2.34098,-5.78854425 3.59341,-5.92187855 4.62677,0.035746 6.18444,-2.30394365 7.40848,-4.23505215 3.24346,-1.1313273 5.45977,3.0314291 4.39046,3.71442325 -0.3173,0.7030945 -4.43367,4.82539145 0.30999,5.43408255 1.61999,-0.8909823 4.19946,-0.8969912 1.91935,-2.6215135 -2.90122,-2.64721145 3.86282,-3.6140325 6.59026,-3.7059656 3.06142,0.572971 7.08264,-1.096733 8.73054,1.21942415 1.33127,0.9396233 -2.67918,3.14513745 1.35004,2.15938945 3.89299,-1.37003885 7.57045,-2.7938779 12.15778,-3.1979987 3.78924,-1.4943633 8.71728,0.2368696 7.55511,3.0593385 4.23902,-1.30606265 8.10182,0.8239047 11.99727,0.222472 3.64952,-0.4100234 -2.86314,-2.20386345 -3.57565,-2.55899675 -3.81312,-1.49488815 0.73225,-3.63038575 1.80547,-4.98793365 2.59375,-1.8297458 4.62838,0.3110879 6.17998,1.7379594 3.39774,-0.4218918 8.10768,-1.0686453 10.1795,1.1840993 2.80685,0.876346 1.31125,1.99935665 -0.98132,2.34000315 2.28869,0.9241674 3.34742,1.87609905 0.91324,3.03745815 -0.18463,2.2183992 2.61505,5.3695457 4.86727,6.3314951 1.54694,-2.837193 4.81191,-1.3118071 7.53734,-0.2977471 3.76409,-0.1101281 4.96435,2.3213538 6.58198,4.1009888 1.36433,1.800962 9.2673,4.946398 3.00219,6.259302 -3.14455,0.282282 -7.84437,-0.453892 -5.19203,2.486057 4.37159,2.041155 -2.58821,4.140977 -5.39586,2.396307 -3.45106,-1.542222 -5.5265,-3.849684 -6.91377,-6.26436 -1.06445,-1.717856 0.51268,-6.177994 -4.35429,-4.990021 -0.68159,2.552319 0.98164,4.782129 1.38638,7.183428 1.16641,2.427415 1.46529,4.971153 3.19693,7.287463 1.21981,1.075098 4.92621,3.099371 3.11279,5.192987 -0.29036,2.390421 -3.72848,4.230832 -6.38016,1.452876 -1.87079,-2.106559 -6.56259,-2.025774 -9.33239,-3.289903 -2.54562,0.156553 -3.27966,-2.762348 -3.07941,-4.435484 -1.17818,-1.849174 -6.46797,-2.260418 -7.63768,-3.889894 -3.90834,2.05738 -4.40975,-2.777868 -4.66998,-4.434768 -1.81915,-1.948012 2.4753,-3.253953 0.48375,-4.838169 -4.92138,0.552115 -2.53358,4.047054 -2.46609,6.149892 1.28361,1.408176 -3.89453,2.456335 0.56864,3.440628 1.72197,1.69707 2.50577,4.096743 6.5983,4.152208 2.96651,0.774293 3.9489,3.321115 -0.79124,2.987516 -3.7442,0.416926 -2.24231,4.2756 -6.92928,4.028792 -4.35388,1.776863 -4.86687,-1.322345 -5.42493,-3.10432 -0.55806,-1.782002 -0.59173,-4.056279 -3.76069,-3.755326 -1.30052,1.033797 -4.68945,3.218419 -6.84596,1.857256 -4.58685,-7.920809 -9.34407,-3.292703 -15.8458,-4.07425 -1.57893,-0.646932 -5.71021,-4.048911 -6.84387,-1.384769 -0.65775,1.507625 -2.64,2.459203 -5.70239,1.90326 -3.46368,-1.638739 0.54923,-4.126599 -1.94482,-5.48394 -1.39634,-2.393644 -7.59932,0.186893 -8.27064,-2.757075 z"
       sodipodi:nodetypes="cccccccccccccccccccccccccccccccccccccccccccczccccccsc" />
  </g>
  <g
     inkscape:groupmode="layer"
     id="layer4"
     inkscape:label="Text Banner">
    <path
       style="fill:#6c3c16;fill-opacity:1;stroke:#6c3c16;stroke-width:0.279112px;stroke-linecap:butt;stroke-linejoin:miter;stroke-opacity:1"
       d="M -13.630176,5.99083 175.08256,5.6711121 155.56538,36.005103 175.40756,62.919118 -13.090754,62.724746 Z"
       id="path967"
       sodipodi:nodetypes="cccccc" />
  </g>
</svg>
