<?xml version="1.0" encoding="UTF-8" standalone="no"?>
<svg
   xmlns:dc="http://purl.org/dc/elements/1.1/"
   xmlns:cc="http://creativecommons.org/ns#"
   xmlns:rdf="http://www.w3.org/1999/02/22-rdf-syntax-ns#"
   xmlns:svg="http://www.w3.org/2000/svg"
   xmlns="http://www.w3.org/2000/svg"
   xmlns:sodipodi="http://sodipodi.sourceforge.net/DTD/sodipodi-0.dtd"
   xmlns:inkscape="http://www.inkscape.org/namespaces/inkscape"
   width="1920"
   height="1080"
   viewBox="0 0 508 285.75"
   version="1.1"
   id="svg8"
   inkscape:version="1.0.1 (3bc2e813f5, 2020-09-07)"
   sodipodi:docname="leaves.svg">
  <defs
     id="defs2" />
  <sodipodi:namedview
     id="base"
     pagecolor="#ffffff"
     bordercolor="#666666"
     borderopacity="1.0"
     inkscape:pageopacity="0.0"
     inkscape:pageshadow="2"
     inkscape:zoom="0.98994949"
     inkscape:cx="1601.9416"
     inkscape:cy="691.34352"
     inkscape:document-units="mm"
     inkscape:current-layer="layer1"
     inkscape:document-rotation="0"
     showgrid="false"
     units="px"
     inkscape:pagecheckerboard="true"
     inkscape:window-width="1920"
     inkscape:window-height="1017"
     inkscape:window-x="1912"
     inkscape:window-y="-7"
     inkscape:window-maximized="1" />
  <metadata
     id="metadata5">
    <rdf:RDF>
      <cc:Work
         rdf:about="">
        <dc:format>image/svg+xml</dc:format>
        <dc:type
           rdf:resource="http://purl.org/dc/dcmitype/StillImage" />
        <dc:title></dc:title>
      </cc:Work>
    </rdf:RDF>
  </metadata>
  <g
     inkscape:label="Background"
     inkscape:groupmode="layer"
     id="layer1">
    <path
       style="fill:#003300;stroke:#003300;stroke-width:0.264583px;stroke-linecap:butt;stroke-linejoin:miter;stroke-opacity:1;fill-opacity:1"
       d="m 443.13287,88.867116 c 2.01056,0.481143 2.93997,-0.008 2.93997,-2.00452 0,-0.12673 0.0807,-0.721109 0,-0.801809 -0.0668,-0.06682 -0.20045,-0.06682 -0.26729,-0.133636 -0.11136,-0.11136 -0.15589,-0.289541 -0.26725,-0.400904 -0.063,-0.063 -0.18759,0.03984 -0.26728,0 -0.19677,-0.09839 -0.1773,-0.177303 -0.26726,-0.267269 -0.20804,-0.208047 -1.09273,0.04731 -1.20272,0.267269 -0.0932,0.186457 -0.15343,0.03959 -0.26728,0.267271 -0.10549,0.211018 0.0161,0.919266 -0.13361,1.069078 -0.0315,0.0315 -0.10216,-0.0315 -0.13364,0 -0.063,0.063 0.063,0.204272 0,0.267269 -0.141,0.140996 -0.26549,0.130043 -0.4009,0.400905 -0.0701,0.1402 0.10665,0.561512 0,0.668173 -0.0446,0.04454 -0.26728,-0.08909 -0.13364,0.133636 0.11459,0.190984 0.26725,0.356359 0.4009,0.534537 z"
       id="path849" />
    <path
       id="path851"
       style="fill:#003b00;stroke:#003b00;stroke-width:0.264583px;stroke-linecap:butt;stroke-linejoin:miter;stroke-opacity:1;fill-opacity:1"
       d="m 399.83521,-0.40090428 c 2.08355,2.61933468 3.38681,4.69210008 0.6668,6.94042088 2.31314,3.8149114 -4.48462,1.563587 -5.07675,4.5521684 4.07428,3.03775 -3.32752,3.910442 -2.22762,0.43633 -2.01907,-1.9399669 2.91386,-4.7074342 -0.71235,-6.3162592 -2.06515,-1.9010191 -4.34256,6.1608312 -5.34537,2.0045214 2.07153,-0.5800686 2.74324,-2.3915091 0.9444,-2.9277043 2.2513,-1.2893471 1.31271,-5.4400919 -0.67715,-1.2149734 -0.88136,3.7477659 -7.71237,1.5375111 -5.44756,6.474817 -0.97347,3.0640175 2.74109,5.9846145 3.2502,2.1201165 3.33428,0.687231 3.81528,7.349306 -0.1834,8.945668 -4.67192,-0.81387 -5.76786,7.173815 -1.22736,8.250906 4.83176,2.827143 5.35582,-2.248857 4.43046,-4.858252 2.08451,0.02628 8.75294,-3.001452 5.96026,1.219908 -1.61011,0.601315 -6.54578,-3.082699 -4.45287,1.47129 5.2508,1.425348 -5.42519,4.51893 -0.42426,6.1141 2.78754,0.268972 2.40291,0.288522 3.84083,2.200154 3.72114,1.217959 3.69037,-2.767918 2.14963,-4.484557 1.86833,0.144145 5.70533,-1.494371 2.39396,-2.865354 -3.57185,-0.568267 0.32287,-3.937607 1.06907,-4.944487 3.16944,0.85576 5.04577,-1.779324 5.3448,-3.837352 1.22525,-3.533453 2.15309,0.189122 0.22035,1.802762 0.48816,2.872522 -1.8866,2.466351 -2.49154,4.573651 -1.2598,3.839839 0.96701,5.006716 4.2763,5.345391 -2.84157,4.076248 3.77424,7.387142 5.61266,3.340868 2.87199,-2.086295 3.80571,3.739201 0.0388,2.45761 -3.53251,0.267798 1.18579,7.305845 -3.98361,5.829016 -4.78883,-0.578834 -1.93856,8.764233 2.4748,4.943215 0.0332,-2.168227 2.67844,-5.445178 4.54358,-2.672694 -2.76242,0.877795 -1.16021,2.574729 -2.00453,4.009043 -2.23697,0.716819 -6.95843,-2.004366 -6.1472,2.405425 -2.61818,1.218282 -2.28188,4.677625 -6.56877,2.995378 -4.58212,1.916328 2.64055,5.709876 3.45935,2.020697 3.79654,1.948681 3.91015,-5.597117 7.79283,-1.909063 1.55813,3.437035 7.27396,-3.454329 6.00737,0.902032 -4.80684,1.398786 -0.23676,7.751212 0.33827,10.71166 0.67338,1.931399 4.13471,-3.285363 3.4892,-6.380421 0.63512,-3.291375 -2.3201,-4.458756 1.7937,-4.757564 3.21281,-0.367688 -0.42678,-8.115907 2.67803,-6.778387 1.696,1.944004 1.22898,-3.386727 2.25794,1.191148 1.06111,2.014151 -0.56921,8.618152 2.73832,6.586887 -0.99361,-5.88244 6.92087,-3.576905 9.02154,-7.655965 0.0421,-2.845414 1.37806,-4.74663 -0.61476,-6.676391 5.38385,-0.597739 0.30561,6.21869 0.10842,8.833393 -1.31921,1.969237 -4.6308,3.074265 -2.70089,6.796527 -2.27549,2.726849 -0.57245,5.336158 1.46997,5.746295 -3.25517,1.993951 -2.60075,4.807829 -1.55865,7.149879 -3.30334,2.460606 3.06654,7.235357 -2.31675,8.351751 1.19496,1.16094 -1.04767,3.47726 2.50926,1.929039 3.82125,-2.252652 2.99663,2.042311 -0.37108,2.21364 0.45336,3.855391 -1.80436,7.314613 -0.61355,11.935503 1.56233,4.382155 4.40076,-0.0067 2.08352,-2.3138 0.75595,-2.607516 4.85876,2.407229 4.46306,-2.370356 -0.3128,-1.484414 -3.87892,-2.539831 -0.84413,-3.408035 2.43253,-1.484713 4.04125,-3.263397 5.60188,-5.847835 1.21267,-1.15361 3.96882,-1.419079 2.53904,-4.142676 4.11825,-3.167028 -4.55766,-1.676896 -2.57711,-3.60754 2.93449,-0.06271 4.14765,-0.161073 2.90032,-2.738402 2.10336,-2.297733 1.63881,-5.797299 -0.85774,-7.552073 -4.63955,-1.871265 -0.54559,-4.908346 2.67268,-2.806329 1.1489,-2.306022 1.37925,-4.734379 4.81087,-3.34087 -0.21808,-3.054159 4.45567,1.866152 4.00905,-2.405425 -4.51082,-3.895075 4.44705,1.846983 2.67268,-2.806332 2.46471,-1.282167 3.99972,3.614251 4.94381,-0.974716 -0.44928,-2.680931 -1.07498,-5.253235 -3.07291,-7.177004 -2.59345,-1.710696 -2.95297,-1.775305 -2.62236,1.820502 -0.85009,2.674293 -3.87477,-1.158868 -5.2729,2.296925 -3.23118,-3.011573 3.6121,-4.11335 4.32405,-5.921272 -2.4853,-2.166816 -3.76579,-5.876495 0.0292,-7.192094 -2.46203,-2.944033 2.89609,-4.469779 3.58619,-5.673823 -1.84854,-4.484059 2.64763,-5.929881 6.103,-5.375452 -0.90773,-4.381056 5.39759,0.733009 4.94449,3.340869 0.0507,2.281169 3.89133,5.395865 3.33845,0.544588 -2.33423,-4.763408 4.53464,-2.522033 4.38339,-6.035564 1.45412,-1.62407 4.2528,-3.115649 3.32592,-6.678197 1.69552,-4.8726864 1.73446,-10.0076852 1.78118,-15.0923186 -1.00241,-5.4595282 -8.0478,-1.5202109 -11.82511,-2.499753 -8.15267,0.20376 -16.31528,0.4653111 -24.46125,-0.2513723 -10.4392,-0.4922797 -20.88969,-1.0210959 -31.26765,-2.220856 -8.35319,-0.2063212 -16.69656,-0.796664 -25.05489,-0.5070441 0.66845,2.3717375 2.28194,4.9180062 3.60814,6.41446872 z" />
    <path
       id="path856"
       style="fill:#003300;stroke:#003300;stroke-width:0.264583px;stroke-linecap:butt;stroke-linejoin:miter;stroke-opacity:1;fill-opacity:1"
       d="m 399.23735,46.585565 c -0.54039,0.326115 -0.88489,0.942919 -1.46658,1.152346 -0.54683,0.426257 -1.40154,0.176734 -1.81993,0.727974 -0.42193,1.025482 0.19427,2.218541 1.05734,2.813514 0.49282,0.480046 1.06906,0.859459 1.62854,1.260051 0.55213,0.640267 1.52243,0.776209 2.29848,0.52986 0.68368,-0.165216 0.58064,-0.965407 1.10706,-1.243209 0.72973,-0.125276 1.25988,-0.687975 1.59057,-1.269715 0.72895,-0.396875 1.75051,-0.862322 1.63133,-1.863528 -0.19193,-0.95388 -0.96417,-1.632423 -1.66569,-2.241123 -0.62941,-0.672419 -1.34522,-1.437999 -1.27519,-2.435979 -0.13673,-0.564981 0.42503,-0.844521 0.8828,-0.548488 0.47208,-0.80045 -0.33612,-2.011559 0.58447,-2.594277 0.60339,-0.567554 1.50837,-0.439536 2.15192,-0.881549 0.55127,-0.420647 1.13858,-0.881667 0.80067,-1.663984 -0.22162,-0.759389 -0.71773,-1.453549 -1.41615,-1.840225 -0.34292,-0.627375 -1.03642,-0.188603 -1.4541,0.208335 -0.59292,0.333478 -0.63426,1.213127 -1.47805,1.049511 -0.71812,-0.05417 -1.48077,-0.359856 -2.15995,0.03888 -0.55415,0.282036 -1.15762,0.499883 -1.5023,1.076193 -0.49817,0.188161 -1.70404,0.422504 -0.9412,1.142908 0.59637,0.540619 0.97103,1.217321 0.79429,2.041794 -0.25473,0.799995 -1.35159,0.145722 -1.96304,0.40392 -0.63068,0.581269 -0.0867,1.888975 0.46101,2.43874 0.49406,0.330415 1.14805,0.277684 1.62975,0.682108 0.0306,0.342098 0.3064,0.688068 0.52395,1.015946 z" />
    <path
       id="path860"
       style="fill:#002b00;stroke:#002b00;stroke-width:0.264583px;stroke-linecap:butt;stroke-linejoin:miter;stroke-opacity:1;fill-opacity:1"
       d="m 378.26367,22.109998 c 0.0159,-0.39234 -0.29167,-0.896219 -0.67482,-1.168128 -0.38315,-0.271909 -0.97804,-0.911164 -1.52674,-1.166578 -0.47138,-0.371252 -0.84555,-0.866114 -0.974,-1.496031 -0.48127,-0.648623 -1.41587,0.189429 -2.02566,-0.230886 -0.45983,-0.700522 0.94133,-0.885883 0.70246,-1.577063 -0.10021,-0.487241 -0.15726,-1.06719 -0.419,-1.16326 -0.25877,-0.538844 -0.64707,-1.23833 -1.34514,-0.850998 -0.86778,0.226626 -1.78362,0.110433 -2.67272,0.122781 -0.66138,-0.219136 -1.48106,-0.235532 -2.04677,-0.614493 -0.59946,-0.125487 -1.07652,0.488705 -1.49045,0.687386 -0.39075,0.355931 -1.30135,0.07257 -1.36556,0.840118 -0.11958,0.663713 -0.32716,1.05794 -0.47784,1.661935 -0.36469,0.769775 0.18014,1.326438 0.33471,2.026606 0.0794,0.887307 1.22345,0.312046 1.76802,0.220498 0.65095,-0.195058 1.30742,-0.520502 2.00275,-0.317762 0.64665,0.0047 1.656,0.661167 1.02491,1.304451 -0.49979,0.195608 -0.82517,0.60682 -1.4383,0.617096 -0.67853,0.0708 -0.9185,0.770027 -0.72801,1.362708 0.32004,0.52923 0.5816,1.064442 1.17035,1.421472 0.45876,0.247448 1.30417,0.214397 1.67894,-0.118874 0.0822,-0.361449 0.23303,-1.131257 0.91678,-1.107596 0.62076,0.31499 0.58726,1.213952 0.81951,1.798903 0.30562,0.543193 0.31699,1.126685 0.72384,1.601656 0.39747,0.499402 0.81435,0.757648 1.14338,1.190119 0.55054,0.331348 1.57796,0.528233 1.77706,-0.317733 0.3981,-0.520496 0.0751,-1.263554 0.37625,-1.848583 0.25828,-0.533241 0.48813,-1.089264 0.98022,-1.294094 0.64247,-0.711527 1.8172,-0.391882 1.76583,-1.58365 z"
       sodipodi:nodetypes="czccccccccccccccccccccccccccc" />
    <path
       id="path863"
       style="fill:#003b23;stroke:#003b23;stroke-width:0.264583px;stroke-linecap:butt;stroke-linejoin:miter;stroke-opacity:1;fill-opacity:1"
       d="m 382.18117,14.977306 c -0.65494,-0.263508 -1.36405,-0.364408 -2.01134,-0.648287 -0.39736,-0.106417 -0.81306,-0.08682 -1.21392,-0.174825 -0.41299,-0.06028 -0.83369,-0.01408 -1.23392,0.09032 -0.56185,0.04203 -1.15703,0.33083 -1.39377,0.865749 -0.0373,0.402362 -0.13356,0.795178 -0.25558,1.182372 -0.0663,0.425153 0.0967,0.828803 0.18126,1.232841 0.14623,0.461413 0.5052,0.812826 0.70407,1.250008 0.23125,0.315483 0.61204,0.610741 1.02534,0.438427 0.37501,-0.02415 0.57668,-0.328396 0.85681,-0.506963 0.20513,-0.152653 0.54045,-0.344261 0.81327,-0.477347 0.36867,-0.151252 0.93824,-0.216618 1.19193,0.159277 0.35027,0.514311 0.56298,1.170965 1.12878,1.500483 0.37765,0.06014 0.6822,0.338579 1.06737,0.362987 0.37286,-0.02239 0.36918,-0.529751 0.49968,-0.800731 0.28698,-0.385774 0.0286,-0.875805 0.12726,-1.306013 0.0526,-0.403272 -0.13776,-0.796862 -0.46649,-1.028989 -0.27366,-0.254351 -0.44865,-0.598901 -0.53622,-0.95685 -0.10883,-0.313476 -0.18987,-0.618538 -0.17205,-0.955335 -0.0261,-0.156384 -0.21057,-0.144444 -0.31248,-0.227119 z" />
    <path
       id="path865"
       style="fill:#003300;stroke:#003300;stroke-width:0.264583px;stroke-linecap:butt;stroke-linejoin:miter;stroke-opacity:1;fill-opacity:1"
       d="m 378.11792,13.512649 c 0.41368,-0.009 0.62616,-0.111739 0.81614,-0.421133 0.18998,-0.309394 0.36651,-0.688887 0.34105,-1.068154 -0.0255,-0.379267 -0.0166,-0.799245 -0.10196,-1.111402 -0.0853,-0.312157 -0.0803,-0.542636 -0.26012,-0.753191 -0.15144,-0.1921609 -0.29539,-0.3890722 -0.5088,-0.5249947 -0.21341,-0.1359225 -0.45838,-0.243382 -0.67793,-0.3603777 -0.28363,-0.096768 -0.56378,-0.2456574 -0.87318,-0.2100039 -0.39167,5.485e-4 -0.79883,0.054755 -1.17335,0.051597 -0.37452,-0.00316 -0.49915,-0.00179 -0.78644,0.1225051 -0.28729,0.1242999 -0.54094,0.3635367 -0.6023,0.6775606 -0.11628,0.5544936 0.008,1.1253996 -0.0763,1.6841126 -0.038,0.233955 -0.0444,0.508979 0.15723,0.674183 0.32556,0.268131 0.505,0.383009 1.12658,0.550035 0.62158,0.167026 1.71969,0.613753 2.61938,0.689263 z"
       sodipodi:nodetypes="czzzczcczzccczc" />
    <path
       id="path867"
       style="fill:#003b00;stroke:#003b00;stroke-width:0.264583px;stroke-linecap:butt;stroke-linejoin:miter;stroke-opacity:1;fill-opacity:1"
       d="m 371.30153,11.901224 c 0.93649,-0.532517 0.58838,-0.826976 0.78978,-1.289661 0.17439,-0.277881 0.42449,-0.03921 0.74329,-0.300097 0.3188,-0.260892 0.66813,-0.6685641 0.66967,-1.1299848 -0.17339,-0.415469 -0.42014,-0.7337373 -0.73764,-1.0600133 -0.28479,-0.3491827 -0.7257,-0.4020291 -1.05224,-0.6071725 -0.35858,-0.2748089 -0.82491,-0.5208075 -1.30026,-0.5258342 -0.52827,-0.1188605 -0.93047,0.3538404 -1.44567,0.3581489 -0.55328,0.071714 -1.11922,0.1392232 -1.6595,0.2024172 -0.44502,0.1030757 -0.32466,0.8139973 -0.6721,1.0499372 -0.34744,0.2359399 -0.28346,0.4953895 0.0235,0.6142116 0.27954,0.203998 0.6363,0.2820278 1.05248,0.2377688 0.44911,0.029063 0.87899,0.086821 1.23911,0.3291948 0.29054,0.5892653 -0.58555,0.7343353 -0.99646,0.6843253 -0.54034,0.07852 -0.94544,-0.428652 -1.46033,-0.400846 -0.25937,-0.090972 -0.82045,-0.081819 -1.21026,-0.05856 -0.49798,0.08336 -1.22227,0.278743 -1.56709,0.369413 -0.4454,0.140955 -0.44641,0.809725 -0.89197,0.780158 -0.39445,0.01015 -0.8857,-0.145595 -1.2028,0.153022 -0.23957,0.247039 -0.37495,0.66172 -0.4669,0.929327 -0.19546,0.527835 0.28799,0.937172 0.79919,0.889909 0.44803,0.09861 0.88898,0.174099 1.34771,0.169661 0.5895,0.04333 1.18516,0.08791 1.77459,0.02712 0.32074,-0.102161 0.61822,0.04267 0.95875,0.03556 0,0 0.92932,0.04704 1.26223,-0.328143 0.35344,-0.226301 0.43473,-0.560058 0.43066,-0.971623 0.36596,-0.287465 0.96521,-0.283904 1.41167,-0.153199 0.4015,0.597903 1.2241,0.527477 2.16059,-0.005 z"
       sodipodi:nodetypes="zczcccccczcccccccccccccscccz" />
    <path
       style="fill:#003300;stroke:#003300;stroke-width:0.264583px;stroke-linecap:butt;stroke-linejoin:miter;stroke-opacity:1;fill-opacity:1"
       d="m 378.82663,-0.49609374 c -0.94493,3.89787944 -0.37799,4.51209064 0.77957,4.60658464 1.15755,0.094494 1.7009,-0.6378347 2.19699,0.2834823 0.49609,0.921317 1.60639,0.9685639 2.40961,0.2598587 0.8032,-0.7087055 1.86624,-0.1417413 1.13393,-1.6300225 -0.73234,-1.4882812 -0.85045,-1.6536457 -0.8032,-2.33872757 0.0472,-0.68508183 0.0945,-1.18117555 0.0945,-1.18117555 z"
       id="path875"
       sodipodi:nodetypes="cssssscc" />
    <path
       id="path1457"
       style="opacity:1;fill:#843c16;fill-opacity:1;stroke:#843c16;stroke-width:0.426561px;stroke-linecap:butt;stroke-linejoin:miter;stroke-opacity:1"
       d="m 524.44497,292.54514 c -3.67907,-8.15923 -3.52953,-16.82565 -6.46469,-25.12369 -0.84249,-11.36144 -1.43491,-22.7016 -0.69889,-34.09898 0.77693,-8.4127 -3.52552,-16.09642 -2.44604,-24.47957 0.42863,-7.73827 5.07181,-15.89583 2.27142,-23.95213 0.13971,-6.8885 -4.57436,-1.82017 -4.71747,-4.16559 -1.7321,-8.17838 3.81729,-15.9134 2.44576,-24.18964 -0.48842,-9.3394 -0.71213,-18.6385 -0.69889,-28.01036 5.40923,-1.82596 -1.95956,-10.84234 1.57271,-15.23043 -2.55868,-9.16856 0.70307,-18.210101 -0.17483,-27.505722 -0.8919,-7.773243 -1.28104,-15.49806 1.5724,-22.871836 1.1979,-12.923718 -7.45602,-24.874175 -5.76552,-37.750638 -0.89433,-7.440696 -7.06008,-14.692539 -2.4461,-22.3900269 9.05235,-13.5435451 -15.31276,-8.6768375 -25.33467,-8.9820475 -9.01963,7.1626073 2.72052,17.9554194 0.16866,26.6396884 -0.26827,11.008334 -2.05407,22.040508 0.52991,32.980271 1.46417,9.755816 -0.0414,19.926399 1.33113,29.377547 -2.00056,11.839185 -0.096,24.275234 2.1632,36.100284 -0.94509,7.45727 2.7897,15.33062 -1.22304,22.25985 -0.8356,8.40312 0.41024,17.27129 -1.39755,26.16509 1.43838,5.42745 1.80888,10.87562 2.87176,16.37474 3.61889,18.70915 -3.44174,34.27737 -0.5915,53.04846 -1.75656,6.12746 0.71831,11.97645 -1.09976,20.904 -1.81806,8.92755 1.76814,10.92769 1.76814,10.92769 -3.34623,6.90929 -5.43722,16.35474 -6.28027,25.39214 5.05503,3.71369 1.32373,6.63852 6.27007,9.2409 7.075,3.73861 20.10285,-1.64864 26.76977,-3.51571 2.4457,-1.3179 9.01912,-4.37753 9.60422,-7.14429 z"
       sodipodi:nodetypes="sccccccccccccccccccccczccccss" />
    <path
       id="path1460"
       style="fill:#2a1a16;fill-opacity:1;stroke:none;stroke-width:0.439615px;stroke-linecap:butt;stroke-linejoin:miter;stroke-opacity:1"
       d="m 491.34314,260.93813 c -1.69241,-10.67027 0.203,-21.40246 1.56443,-31.99261 1.48502,-9.01609 3.88356,-18.14487 1.56466,-27.29872 0.0568,-10.45212 -0.46999,-20.8457 0.58662,-31.23693 0.34103,-9.20276 -1.78765,-18.6319 2.90799,-27.58054 2.30583,-9.44035 -4.60246,-18.12853 -3.25431,-27.63115 0.36997,-7.59328 1.14519,-14.9526 -1.21808,-22.375655 -6.27988,-4.897037 0.72566,-12.974724 -0.58651,-18.899111 -0.61352,-8.698437 -4.36709,-18.26667 2.5422,-26.310532 1.25303,-8.282056 1.90308,-16.770066 3.09688,-25.140243 -0.0657,-7.148964 4.33243,-14.1126892 3.94331,-20.9340574 -2.38923,-7.8932715 12.06672,-9.8981227 19.16576,-5.5585619 5.44377,2.6517191 -7.66963,4.06950846 -4.10699,8.6466509 1.13692,7.4662084 -2.53505,14.4714754 -2.34668,21.8636754 1.28528,7.816373 1.5853,15.917077 -0.39087,23.593002 -3.11164,8.721792 -0.32494,17.188412 -0.22814,25.957042 -2.76459,10.47266 -1.09586,21.167457 -2.90096,31.72848 -3.82947,10.54756 -3.30566,21.81266 0.97807,32.23967 1.12285,7.05265 3.27813,15.28668 1.80547,22.88394 -1.35803,9.51408 -3.2027,18.97779 -4.6451,28.43593 1.29388,10.51246 0.88674,21.25421 -0.48512,31.81151 -2.36219,8.34837 4.07742,18.33157 2.34013,26.7822 -0.36558,6.7055 9.72487,11.2862 6.30438,17.49933 2.27034,9.04095 -2.10971,15.04107 -5.57257,22.01534 5.25801,5.61302 -19.55306,4.94198 -25.18196,-1.75385 1.19303,-11.89409 4.98306,-21.1293 4.11739,-26.74481 z"
       sodipodi:nodetypes="cccccccccccccccccccccccccc" />
  </g>
</svg>
