<?xml version="1.0" encoding="UTF-8" standalone="no"?>
<svg
   xmlns:dc="http://purl.org/dc/elements/1.1/"
   xmlns:cc="http://creativecommons.org/ns#"
   xmlns:rdf="http://www.w3.org/1999/02/22-rdf-syntax-ns#"
   xmlns:svg="http://www.w3.org/2000/svg"
   xmlns="http://www.w3.org/2000/svg"
   xmlns:sodipodi="http://sodipodi.sourceforge.net/DTD/sodipodi-0.dtd"
   xmlns:inkscape="http://www.inkscape.org/namespaces/inkscape"
   width="98.95237"
   height="203.09348"
   viewBox="0 0 26.181148 53.735149"
   version="1.1"
   id="svg20"
   inkscape:version="1.0.1 (3bc2e813f5, 2020-09-07)"
   sodipodi:docname="leg.svg">
  <defs
     id="defs14">
    <inkscape:path-effect
       effect="bspline"
       id="path-effect899"
       is_visible="true"
       lpeversion="1"
       weight="33.333333"
       steps="2"
       helper_size="0"
       apply_no_weight="true"
       apply_with_weight="true"
       only_selected="false" />
  </defs>
  <sodipodi:namedview
     id="base"
     pagecolor="#ffffff"
     bordercolor="#666666"
     borderopacity="1.0"
     inkscape:pageopacity="0.0"
     inkscape:pageshadow="2"
     inkscape:zoom="4"
     inkscape:cx="56.600933"
     inkscape:cy="93.346996"
     inkscape:document-units="mm"
     inkscape:current-layer="layer1"
     inkscape:document-rotation="0"
     showgrid="false"
     units="px"
     inkscape:window-width="1920"
     inkscape:window-height="1017"
     inkscape:window-x="-8"
     inkscape:window-y="-8"
     inkscape:window-maximized="1"
     showguides="false" />
  <metadata
     id="metadata17">
    <rdf:RDF>
      <cc:Work
         rdf:about="">
        <dc:format>image/svg+xml</dc:format>
        <dc:type
           rdf:resource="http://purl.org/dc/dcmitype/StillImage" />
        <dc:title />
      </cc:Work>
    </rdf:RDF>
  </metadata>
  <g
     inkscape:groupmode="layer"
     id="layer1"
     inkscape:label="Rocks"
     style="display:inline"
     transform="translate(-240.04856,-115.765)">
    <path
       id="path897"
       style="fill:#656e67;fill-opacity:1;stroke:#656e67;stroke-width:0.264583px;stroke-linecap:butt;stroke-linejoin:miter;stroke-opacity:1"
       d="m 255.96453,156.08309 c 1.32699,-2.41889 1.29774,-5.3597 2.75748,-7.7263 0.83643,-3.10388 1.8299,-6.16076 2.57215,-9.29142 0.82354,-2.04025 1.66747,-4.11227 1.76198,-6.34475 0.58756,-2.0244 1.42282,-3.83715 1.82563,-5.89421 0.40281,-2.05706 0.52082,-2.23058 1.07018,-4.138 0.43788,-1.75257 -0.0782,-5.67938 -2.16115,-5.91804 -8.46218,-1.22319 -9.29478,-1.96922 -11.36974,3.53666 -1.00109,3.40064 -1.13027,2.8522 -1.26195,4.63279 0.11848,2.69411 -1.76321,5.29431 -2.07577,7.91819 -0.54561,1.72613 -0.95267,3.47681 -1.39042,5.22643 -0.8979,1.70468 -1.20894,3.58514 -1.5366,5.45614 -1.51136,4.58468 -2.36659,8.0789 -4.28158,13.49481 -1.91499,5.41591 0.25012,9.93111 3.41988,10.83865 3.16976,0.90754 9.16103,-7.17263 10.66991,-11.79095 z"
       sodipodi:nodetypes="cccczccccccczzc" />
  </g>
</svg>
