<?xml version="1.0" encoding="UTF-8" standalone="no"?>
<svg
   xmlns:dc="http://purl.org/dc/elements/1.1/"
   xmlns:cc="http://creativecommons.org/ns#"
   xmlns:rdf="http://www.w3.org/1999/02/22-rdf-syntax-ns#"
   xmlns:svg="http://www.w3.org/2000/svg"
   xmlns="http://www.w3.org/2000/svg"
   xmlns:sodipodi="http://sodipodi.sourceforge.net/DTD/sodipodi-0.dtd"
   xmlns:inkscape="http://www.inkscape.org/namespaces/inkscape"
   width="93.761421"
   height="181.2355"
   viewBox="0 0 24.807709 47.951894"
   version="1.1"
   id="svg20"
   inkscape:version="1.0.1 (3bc2e813f5, 2020-09-07)"
   sodipodi:docname="leg2.svg">
  <defs
     id="defs14">
    <inkscape:path-effect
       effect="bspline"
       id="path-effect920"
       is_visible="true"
       lpeversion="1"
       weight="33.333333"
       steps="2"
       helper_size="0"
       apply_no_weight="true"
       apply_with_weight="true"
       only_selected="false" />
    <inkscape:path-effect
       effect="bspline"
       id="path-effect899"
       is_visible="true"
       lpeversion="1"
       weight="33.333333"
       steps="2"
       helper_size="0"
       apply_no_weight="true"
       apply_with_weight="true"
       only_selected="false" />
  </defs>
  <sodipodi:namedview
     id="base"
     pagecolor="#ffffff"
     bordercolor="#666666"
     borderopacity="1.0"
     inkscape:pageopacity="0.0"
     inkscape:pageshadow="2"
     inkscape:zoom="0.5"
     inkscape:cx="130.21909"
     inkscape:cy="96.439172"
     inkscape:document-units="mm"
     inkscape:current-layer="layer1"
     inkscape:document-rotation="0"
     showgrid="false"
     units="px"
     inkscape:window-width="1920"
     inkscape:window-height="1017"
     inkscape:window-x="-8"
     inkscape:window-y="-8"
     inkscape:window-maximized="1"
     showguides="false" />
  <metadata
     id="metadata17">
    <rdf:RDF>
      <cc:Work
         rdf:about="">
        <dc:format>image/svg+xml</dc:format>
        <dc:type
           rdf:resource="http://purl.org/dc/dcmitype/StillImage" />
        <dc:title></dc:title>
      </cc:Work>
    </rdf:RDF>
  </metadata>
  <g
     inkscape:groupmode="layer"
     id="layer3"
     inkscape:label="Background"
     transform="translate(-241.59614,-118.899)" />
  <g
     inkscape:groupmode="layer"
     id="layer1"
     inkscape:label="Rocks"
     style="display:inline"
     transform="translate(-241.59614,-118.899)">
    <path
       style="fill:#656e67;fill-opacity:1;stroke:#656e67;stroke-width:0.264583px;stroke-linecap:butt;stroke-linejoin:miter;stroke-opacity:1"
       d="m 251.74032,165.88729 c 0.0793,0 0.23519,0 0.42256,0.0475 0.18736,0.0475 0.40562,0.14099 0.87325,0.24971 0.46764,0.10871 1.18481,0.23344 2.30721,0.32678 1.12239,0.0933 2.65029,0.1557 3.74159,0.18682 1.0913,0.0311 1.74611,0.0311 2.26007,-0.0315 0.51396,-0.0626 0.88814,-0.18735 1.15278,-0.29646 0.26464,-0.1091 0.42054,-0.20264 0.62376,-0.2806 0.20323,-0.0779 0.45268,-0.14031 0.67055,-0.2183 0.21786,-0.078 0.40495,-0.17152 0.54475,-0.26481 0.13979,-0.0933 0.23332,-0.18682 0.3126,-0.23359 0.0793,-0.0468 0.14164,-0.0468 0.24934,-0.14019 0.10771,-0.0934 0.26362,-0.2805 0.34168,-0.40403 0.0781,-0.12352 0.0781,-0.1859 0.1246,-0.29597 0.0465,-0.11007 0.14008,-0.26598 0.20399,-0.34432 0.0639,-0.0783 0.0951,-0.0783 0.12473,-0.15527 0.0296,-0.0769 0.0608,-0.23285 0.0935,-0.31182 0.0327,-0.079 0.0639,-0.079 0.12471,-0.31182 0.0608,-0.23284 0.15436,-0.70056 0.20133,-0.98089 0.047,-0.28033 0.047,-0.37387 0.0781,-0.45314 0.0312,-0.0793 0.0936,-0.14165 0.0782,-0.43636 -0.0153,-0.29472 -0.10887,-0.8248 -0.15591,-1.1368 -0.047,-0.312 -0.047,-0.40555 -0.0766,-0.46843 -0.0296,-0.0629 -0.092,-0.0941 -0.13979,-0.15562 -0.0478,-0.0616 -0.079,-0.15511 -0.11057,-0.40473 -0.0316,-0.24962 -0.0628,-0.65498 -0.0927,-0.85908 -0.0299,-0.20409 -0.0611,-0.20409 -0.0934,-0.29613 -0.0322,-0.092 -0.0634,-0.27913 -0.0935,-0.37418 -0.0301,-0.095 -0.0613,-0.095 -0.0782,-0.1405 -0.0169,-0.0454 -0.0169,-0.13899 -0.0312,-0.18709 -0.0143,-0.0481 -0.0455,-0.0481 -0.0623,-0.0935 -0.0169,-0.0454 -0.0169,-0.13899 -0.0631,-0.31022 -0.0462,-0.17123 -0.13972,-0.42068 -0.18709,-0.8419 -0.0474,-0.42122 -0.0474,-1.01367 -0.0628,-1.45008 -0.0154,-0.43641 -0.0466,-0.71704 -0.0929,-0.93517 -0.0463,-0.21812 -0.10865,-0.37403 -0.14047,-0.63935 -0.0318,-0.26531 -0.0318,-0.63949 -0.0318,-1.9647 0,-1.32521 0,-3.60146 0,-4.89549 0,-1.29403 0,-1.60584 -0.0465,-2.0266 -0.0465,-0.42077 -0.14004,-0.95086 -0.18708,-1.34081 -0.047,-0.38995 -0.047,-0.6394 -0.0613,-0.7797 -0.0143,-0.1403 -0.0455,-0.1715 -0.0774,-0.23358 -0.032,-0.0621 -0.0631,-0.15564 -0.0792,-0.29622 -0.0161,-0.14058 -0.0161,-0.32767 -0.0469,-0.5457 -0.0308,-0.21804 -0.0932,-0.46749 -0.12473,-0.71718 -0.0316,-0.24969 -0.0316,-0.49914 -0.062,-0.68596 -0.0304,-0.18681 -0.0927,-0.31155 -0.1401,-0.48315 -0.0473,-0.17161 -0.0785,-0.38987 -0.1253,-0.74848 -0.0468,-0.3586 -0.10916,-0.8575 -0.17161,-1.40321 -0.0624,-0.54571 -0.12491,-1.13818 -0.15629,-1.5125 -0.0314,-0.37431 -0.0314,-0.53022 -0.0623,-0.76388 -0.0309,-0.23365 -0.0932,-0.54547 -0.15552,-0.82607 -0.0623,-0.2806 -0.12464,-0.53005 -0.15621,-0.70179 -0.0316,-0.17173 -0.0316,-0.26527 -0.0458,-0.31337 -0.0143,-0.0481 -0.0455,-0.0481 -0.0623,-0.0779 -0.0169,-0.0299 -0.0169,-0.0922 -0.0473,-0.18551 -0.0304,-0.0933 -0.0927,-0.21801 -0.2016,-0.38959 -0.10886,-0.17158 -0.26476,-0.38985 -0.37433,-0.57684 -0.10957,-0.187 -0.17194,-0.34291 -0.21801,-0.42246 -0.0461,-0.0795 -0.0773,-0.0795 -0.10936,-0.14035 -0.0321,-0.0608 -0.0633,-0.18555 -0.0935,-0.24946 -0.0302,-0.0639 -0.0614,-0.0639 -0.0783,-0.10937 -0.0169,-0.0454 -0.0169,-0.13899 -0.0474,-0.26344 -0.0305,-0.12445 -0.0929,-0.28036 -0.15431,-0.3747 -0.0614,-0.0943 -0.1238,-0.12551 -0.17184,-0.21831 -0.0481,-0.0928 -0.0792,-0.24872 -0.14076,-0.38907 -0.0616,-0.14036 -0.1551,-0.26509 -0.21826,-0.40536 -0.0632,-0.14027 -0.0943,-0.29619 -0.1563,-0.4832 -0.062,-0.18701 -0.15552,-0.40528 -0.26501,-0.81071 -0.1095,-0.40542 -0.23423,-0.99787 -0.29691,-1.35666 -0.0627,-0.3588 -0.0627,-0.48353 -0.0933,-0.63917 -0.0306,-0.15564 -0.093,-0.34273 -0.15458,-0.46771 -0.0616,-0.12498 -0.12394,-0.18736 -0.18728,-0.35864 -0.0634,-0.17128 -0.12571,-0.45192 -0.20307,-0.67017 -0.0774,-0.21825 -0.17091,-0.37416 -0.21861,-0.49912 -0.0477,-0.12496 -0.0477,-0.21851 -0.10918,-0.37417 -0.0615,-0.15566 -0.18619,-0.37393 -0.62233,-0.87305 -0.43614,-0.49912 -1.18449,-1.27866 -1.72989,-1.76246 -0.54539,-0.48381 -0.88839,-0.6709 -1.07625,-0.79488 -0.18786,-0.12399 -0.21904,-0.18638 -0.34298,-0.24988 -0.12394,-0.0635 -0.34221,-0.12586 -0.49816,-0.18765 -0.15594,-0.0618 -0.24949,-0.12416 -0.42096,-0.18715 -0.17147,-0.063 -0.42092,-0.12536 -0.60798,-0.18731 -0.18706,-0.062 -0.31178,-0.12432 -0.48355,-0.1563 -0.17176,-0.032 -0.39003,-0.032 -0.51474,-0.0462 -0.12471,-0.0143 -0.15591,-0.0455 -0.42094,-0.0624 -0.26503,-0.0169 -0.76393,-0.0169 -1.71531,0.13879 -0.95138,0.15569 -2.35454,0.4675 -3.21248,0.70131 -0.85794,0.23382 -1.16976,0.38973 -1.35758,0.51503 -0.18782,0.12529 -0.25018,0.21884 -0.32714,0.28062 -0.077,0.0618 -0.1705,0.093 -0.24945,0.15588 -0.0789,0.0629 -0.14131,0.15647 -0.20214,0.20294 -0.0608,0.0465 -0.12321,0.0465 -0.15572,0.079 -0.0325,0.0325 -0.0325,0.0949 -0.0624,0.12472 -0.0298,0.0299 -0.0922,0.0299 -0.12474,0.0624 -0.0325,0.0325 -0.0325,0.0949 -0.0631,0.14005 -0.0307,0.0452 -0.093,0.0764 -0.15619,0.15508 -0.0632,0.0787 -0.12551,0.20347 -0.17068,0.26531 -0.0452,0.0618 -0.0764,0.0618 -0.12464,0.10891 -0.0483,0.0471 -0.11065,0.14062 -0.17227,0.2024 -0.0616,0.0618 -0.12402,0.093 -0.17154,0.1721 -0.0475,0.0791 -0.0787,0.20388 -0.14051,0.29628 -0.0618,0.0924 -0.15535,0.15477 -0.23388,0.28049 -0.0785,0.12572 -0.14089,0.31281 -0.21874,0.46814 -0.0779,0.15533 -0.17138,0.28005 -0.218,0.3747 -0.0466,0.0947 -0.0466,0.15702 -0.0609,0.18688 -0.0143,0.0299 -0.0454,0.0299 -0.0624,0.0935 -0.0169,0.0637 -0.0169,0.18842 -0.0311,0.24946 -0.0143,0.061 -0.0454,0.061 -0.0938,0.13967 -0.0484,0.0786 -0.11072,0.23455 -0.14163,0.37551 -0.0309,0.14095 -0.0309,0.26568 -0.0452,0.32672 -0.0143,0.061 -0.0455,0.061 -0.0624,0.14031 -0.0169,0.0793 -0.0169,0.23519 -0.0639,0.43727 -0.047,0.20208 -0.14059,0.45153 -0.18709,0.62363 -0.0465,0.1721 -0.0465,0.26564 -0.10913,0.49897 -0.0626,0.23333 -0.18735,0.60751 -0.35886,1.09076 -0.1715,0.48325 -0.38977,1.0757 -0.52989,1.90252 -0.14012,0.82681 -0.20248,1.88698 -0.18602,2.51095 0.0164,0.62398 0.11,0.81107 0.15598,0.93552 0.046,0.12446 0.046,0.18684 0.10905,0.35861 0.0631,0.17177 0.18779,0.4524 0.28195,0.62362 0.0941,0.17122 0.15652,0.23359 0.28053,0.5145 0.124,0.2809 0.31109,0.77981 0.49851,1.18512 0.18743,0.40532 0.37452,0.71713 0.46713,0.90399 0.0926,0.18685 0.0926,0.24922 0.12511,0.31158 0.0325,0.0624 0.0949,0.12473 0.17218,0.26533 0.0773,0.14059 0.17086,0.35886 0.24945,0.49889 0.0786,0.14004 0.14096,0.20241 0.23408,0.34297 0.0931,0.14057 0.21784,0.35884 0.31094,0.57711 0.0931,0.21828 0.15546,0.43655 0.21869,0.57661 0.0632,0.14006 0.1256,0.20243 0.18698,0.37415 0.0614,0.17171 0.12375,0.45235 0.18679,0.63942 0.063,0.18708 0.1254,0.28062 0.15557,0.38955 0.0302,0.10893 0.0302,0.23366 0.0614,0.74824 0.0313,0.51458 0.0936,1.41884 0.12473,2.05797 0.0311,0.63914 0.0311,1.01331 0.1094,1.52803 0.0783,0.51472 0.23423,1.16953 0.32758,1.62158 0.0933,0.45204 0.12452,0.70151 0.15682,0.82476 0.0323,0.12326 0.0635,0.12326 0.0936,0.21831 0.0301,0.095 0.0613,0.28213 0.12401,0.50049 0.0627,0.21837 0.15625,0.46783 0.28117,0.74845 0.12492,0.28062 0.28083,0.59244 0.37382,0.8418 0.093,0.24937 0.12416,0.43646 0.1717,0.5768 0.0475,0.14034 0.10989,0.23388 0.14006,0.34282 0.0302,0.10893 0.0302,0.23365 0.0931,0.48337 0.0629,0.24972 0.18762,0.62389 0.28083,1.04472 0.0932,0.42084 0.15557,0.88856 0.2807,1.372 0.12513,0.48343 0.31222,0.98234 0.43669,1.37205 0.12447,0.38971 0.18683,0.67035 0.25017,0.84162 0.0633,0.17128 0.12571,0.23365 0.18714,0.38979 0.0614,0.15614 0.12379,0.40559 0.20215,0.62389 0.0784,0.21831 0.1719,0.40539 0.21788,0.54545 0.046,0.14006 0.046,0.23359 0.0933,0.42095 0.0473,0.18735 0.14084,0.46798 0.204,0.6236 0.0632,0.15562 0.0944,0.18681 0.12502,0.23384 0.0307,0.047 0.0618,0.10941 0.0925,0.21848 0.0307,0.10906 0.0618,0.26498 0.10988,0.35778 0.0481,0.0928 0.11043,0.12398 0.14001,0.17126 0.0296,0.0473 0.0296,0.10966 0.0772,0.23465 0.0476,0.12499 0.14111,0.31208 0.21872,0.51474 0.0776,0.20267 0.13998,0.42094 0.18636,0.8417 0.0464,0.42076 0.0776,1.0444 0.10997,1.35482 0.0324,0.31043 0.0636,0.31043 0.10949,0.42114 0.0459,0.11071 0.10825,0.32898 0.18686,0.50039 0.0786,0.1714 0.17217,0.29613 0.24946,0.46771 0.0773,0.17159 0.13965,0.38986 0.17039,0.65465 0.0307,0.2648 0.0307,0.57661 0.0149,0.79449 -0.0158,0.21788 -0.047,0.34262 0.002,0.42001 0.0486,0.0774 0.1733,0.10857 0.23411,0.12377 0.0608,0.0152 0.0604,0.0154 0.13963,0.0154 z"
       id="path918"
       inkscape:path-effect="#path-effect920"
       inkscape:original-d="m 251.66105,165.88729 c 0.15855,0.003 0.31446,0.003 0.46772,0 0.22092,0.0962 0.43918,0.18973 0.65481,0.28063 0.71982,0.12738 1.43699,0.2521 2.15152,0.37418 1.53053,0.065 3.05843,0.12737 4.58367,0.18709 0.65746,0.003 1.31227,0.003 1.96443,0 0.37682,-0.12208 0.751,-0.24681 1.12253,-0.37418 0.15856,-0.0909 0.31446,-0.18444 0.46772,-0.28063 0.2521,-0.0597 0.50155,-0.12208 0.74836,-0.18709 0.18973,-0.0909 0.37682,-0.18444 0.56127,-0.28063 0.0962,-0.0909 0.18973,-0.18444 0.28063,-0.28064 0.065,0.003 0.12737,0.003 0.18709,0 0.15855,-0.18444 0.31446,-0.37153 0.46772,-0.56126 0.003,-0.0597 0.003,-0.12208 0,-0.18709 0.0962,-0.15326 0.18973,-0.30917 0.28063,-0.46772 0.0338,0.003 0.065,0.003 0.0935,0 0.0338,-0.15326 0.065,-0.30917 0.0935,-0.46772 0.0338,0.003 0.065,0.003 0.0935,0 0.0962,-0.46508 0.18973,-0.9328 0.28063,-1.40317 0.003,-0.0909 0.003,-0.18444 0,-0.28063 0.065,-0.0597 0.12737,-0.12208 0.18709,-0.18709 -0.0909,-0.52744 -0.18445,-1.05752 -0.28064,-1.59025 0.003,-0.0909 0.003,-0.18445 0,-0.28064 -0.0597,-0.0285 -0.12208,-0.0597 -0.18708,-0.0935 -0.0285,-0.0909 -0.0597,-0.18444 -0.0935,-0.28064 -0.0285,-0.40271 -0.0597,-0.80807 -0.0935,-1.21607 -0.0285,0.003 -0.0597,0.003 -0.0935,0 -0.0285,-0.18444 -0.0597,-0.37153 -0.0935,-0.56127 -0.0285,0.003 -0.0597,0.003 -0.0935,0 0.003,-0.0909 0.003,-0.18444 0,-0.28063 -0.0285,0.003 -0.0597,0.003 -0.0935,0 0.003,-0.0909 0.003,-0.18444 0,-0.28063 -0.0909,-0.24681 -0.18444,-0.49626 -0.28063,-0.74836 0.003,-0.5898 0.003,-1.18225 0,-1.77734 -0.0285,-0.27799 -0.0597,-0.55862 -0.0935,-0.8419 -0.0597,-0.15326 -0.12208,-0.30917 -0.18709,-0.46772 0.003,-0.37153 0.003,-0.74571 0,-1.12253 0.003,-2.2736 0.003,-4.54985 0,-6.82874 0.003,-0.30917 0.003,-0.62098 0,-0.93544 -0.0909,-0.52744 -0.18444,-1.05753 -0.28063,-1.59026 0.003,-0.2468 0.003,-0.49625 0,-0.74835 -0.0285,-0.0285 -0.0597,-0.0597 -0.0935,-0.0935 -0.0285,-0.0909 -0.0597,-0.18445 -0.0935,-0.28064 0.003,-0.18444 0.003,-0.37153 0,-0.56126 -0.0597,-0.24681 -0.12208,-0.49626 -0.18709,-0.74836 0.003,-0.24681 0.003,-0.49626 0,-0.74835 -0.0597,-0.12208 -0.12208,-0.24681 -0.18709,-0.37418 -0.0285,-0.21563 -0.0597,-0.43389 -0.0935,-0.65481 -0.0597,-0.49626 -0.12208,-0.99516 -0.18709,-1.49671 -0.0598,-0.58983 -0.12228,-1.1823 -0.1874,-1.77742 0.003,-0.15326 0.003,-0.30917 0,-0.46772 -0.0597,-0.30917 -0.12208,-0.62099 -0.18708,-0.93545 -0.0597,-0.2468 -0.12208,-0.49625 -0.18709,-0.74835 0.003,-0.0909 0.003,-0.18444 0,-0.28063 -0.0285,0.003 -0.0597,0.003 -0.0935,0 0.003,-0.0597 0.003,-0.12208 0,-0.18709 -0.0597,-0.12208 -0.12208,-0.24681 -0.18709,-0.37418 -0.15326,-0.21562 -0.30916,-0.43389 -0.46772,-0.65481 -0.0597,-0.15326 -0.12208,-0.30917 -0.18709,-0.46772 -0.0285,0.003 -0.0597,0.003 -0.0935,0 -0.0285,-0.12208 -0.0597,-0.24681 -0.0935,-0.37418 -0.0285,0.003 -0.0597,0.003 -0.0935,0 0.003,-0.0909 0.003,-0.18444 0,-0.28063 -0.0597,-0.15326 -0.12208,-0.30917 -0.18709,-0.46772 -0.0597,-0.0285 -0.12208,-0.0597 -0.18709,-0.0935 -0.0285,-0.15326 -0.0597,-0.30917 -0.0935,-0.46772 -0.0909,-0.12208 -0.18444,-0.24681 -0.28063,-0.37418 -0.0285,-0.15326 -0.0597,-0.30917 -0.0935,-0.46772 -0.0909,-0.21562 -0.18444,-0.43389 -0.28063,-0.65481 -0.12208,-0.5898 -0.24681,-1.18225 -0.37418,-1.77734 0.003,-0.12208 0.003,-0.24681 0,-0.37418 -0.0597,-0.18444 -0.12208,-0.37153 -0.18709,-0.56126 -0.0597,-0.0597 -0.12208,-0.12208 -0.18709,-0.18709 -0.0597,-0.27799 -0.12208,-0.55862 -0.18708,-0.8419 -0.0909,-0.15326 -0.18445,-0.30917 -0.28064,-0.46772 0.003,-0.0909 0.003,-0.18445 0,-0.28064 -0.12208,-0.21562 -0.2468,-0.43389 -0.37418,-0.65481 -0.7457,-0.77689 -1.49406,-1.55642 -2.24506,-2.33861 -0.34035,-0.18444 -0.68335,-0.37153 -1.02899,-0.56126 -0.0285,-0.0597 -0.0597,-0.12208 -0.0935,-0.18709 -0.21563,-0.0597 -0.4339,-0.12208 -0.65481,-0.18709 -0.0909,-0.0597 -0.18444,-0.12208 -0.28063,-0.18709 -0.24681,-0.0597 -0.49626,-0.12208 -0.74836,-0.18709 -0.12208,-0.0597 -0.2468,-0.12208 -0.37418,-0.18708 -0.21562,0.003 -0.43389,0.003 -0.65481,0 -0.0285,-0.0285 -0.0597,-0.0597 -0.0935,-0.0935 -0.49626,0.003 -0.99516,0.003 -1.49671,0 -1.40052,0.31446 -2.80368,0.62628 -4.2095,0.93544 -0.30916,0.15856 -0.62098,0.31446 -0.93544,0.46773 -0.0597,0.0962 -0.12208,0.18973 -0.18709,0.28063 -0.0909,0.0338 -0.18444,0.065 -0.28063,0.0935 -0.0597,0.0962 -0.12208,0.18974 -0.18709,0.28064 -0.0597,0.003 -0.12208,0.003 -0.18709,0 0.003,0.065 0.003,0.12737 0,0.18708 -0.0597,0.003 -0.12208,0.003 -0.18709,0 0.003,0.065 0.003,0.12738 0,0.18709 -0.0597,0.0338 -0.12208,0.065 -0.18709,0.0935 -0.0597,0.12737 -0.12208,0.2521 -0.18708,0.37418 -0.0285,0.003 -0.0597,0.003 -0.0935,0 -0.0597,0.0962 -0.12208,0.18973 -0.18709,0.28063 -0.0597,0.0338 -0.12208,0.065 -0.18709,0.0935 -0.0285,0.12737 -0.0597,0.2521 -0.0935,0.37418 -0.0909,0.065 -0.18444,0.12737 -0.28063,0.18709 -0.0597,0.18973 -0.12208,0.37682 -0.18709,0.56126 -0.0909,0.12738 -0.18444,0.2521 -0.28063,0.37418 0.003,0.065 0.003,0.12737 0,0.18709 -0.0285,0.003 -0.0597,0.003 -0.0935,0 0.003,0.12737 0.003,0.2521 0,0.37418 -0.0285,0.003 -0.0597,0.003 -0.0935,0 -0.0597,0.15855 -0.12208,0.31446 -0.18709,0.46772 0.003,0.12737 0.003,0.2521 0,0.37418 -0.0285,0.003 -0.0597,0.003 -0.0935,0 0.003,0.15855 0.003,0.31446 0,0.46772 -0.0909,0.2521 -0.18444,0.50155 -0.28063,0.74835 0.003,0.0962 0.003,0.18974 0,0.28064 -0.12208,0.37682 -0.24681,0.751 -0.37418,1.12253 -0.21562,0.59509 -0.43389,1.18754 -0.65481,1.77734 -0.0597,1.06282 -0.12208,2.12298 -0.18709,3.18051 0.0962,0.18973 0.18974,0.37682 0.28064,0.56126 0.003,0.065 0.003,0.12738 0,0.18709 0.12737,0.28328 0.25209,0.56391 0.37417,0.8419 0.065,0.065 0.12738,0.12737 0.18709,0.18709 0.18974,0.50155 0.37683,1.00045 0.56127,1.49671 0.18973,0.31446 0.37682,0.62627 0.56127,0.93544 0.003,0.065 0.003,0.12737 0,0.18709 0.065,0.065 0.12737,0.12737 0.18708,0.18709 0.0962,0.22092 0.18974,0.43919 0.28064,0.65481 0.065,0.065 0.12737,0.12737 0.18709,0.18709 0.12737,0.22092 0.25209,0.43919 0.37417,0.65481 0.065,0.22092 0.12737,0.43919 0.18709,0.65481 0.065,0.065 0.12737,0.12737 0.18709,0.18709 0.065,0.28328 0.12737,0.56391 0.18709,0.8419 0.065,0.0962 0.12737,0.18973 0.18709,0.28063 0.003,0.12737 0.003,0.2521 0,0.37418 0.065,0.90691 0.12737,1.81117 0.18709,2.71278 0.003,0.37683 0.003,0.751 0,1.12254 0.15855,0.65745 0.31446,1.31226 0.46772,1.96443 0.0338,0.25209 0.065,0.50155 0.0935,0.74835 0.0338,0.003 0.065,0.003 0.0936,0 0.0338,0.18974 0.065,0.37682 0.0935,0.56127 0.0962,0.25209 0.18974,0.50155 0.28063,0.74835 0.15856,0.31446 0.31446,0.62628 0.46773,0.93545 0.0338,0.18973 0.065,0.37682 0.0935,0.56126 0.065,0.0962 0.12737,0.18974 0.18709,0.28063 0.003,0.12738 0.003,0.2521 0,0.37418 0.12737,0.37683 0.2521,0.751 0.37418,1.12253 0.065,0.47037 0.12737,0.93809 0.18708,1.40317 0.18974,0.50155 0.37683,1.00045 0.56127,1.49671 0.065,0.28328 0.12737,0.56391 0.18709,0.8419 0.065,0.065 0.12737,0.12737 0.18709,0.18709 0.065,0.25209 0.12737,0.50154 0.18709,0.74835 0.0962,0.18974 0.18973,0.37682 0.28063,0.56127 0.003,0.0962 0.003,0.18973 0,0.28063 0.0962,0.28328 0.18973,0.56391 0.28063,0.8419 0.0338,0.0338 0.065,0.065 0.0936,0.0935 0.0338,0.065 0.065,0.12737 0.0935,0.18709 0.0338,0.15855 0.065,0.31446 0.0935,0.46772 0.065,0.0338 0.12737,0.065 0.18708,0.0935 0.003,0.065 0.003,0.12737 0,0.18709 0.0962,0.18973 0.18974,0.37682 0.28064,0.56126 0.065,0.22092 0.12737,0.43919 0.18709,0.65481 0.0338,0.62628 0.065,1.24991 0.0935,1.87089 0.0338,0.003 0.065,0.003 0.0935,0 0.065,0.22092 0.12738,0.43919 0.18709,0.65481 0.0962,0.12737 0.18974,0.2521 0.28064,0.37418 0.065,0.22091 0.12737,0.43918 0.18709,0.65481 0.003,0.31446 0.003,0.62627 0,0.93544 -0.0285,0.12737 -0.0597,0.2521 -0.0935,0.37418 0.12737,0.0338 0.2521,0.065 0.37418,0.0935 z" />
  </g>
</svg>
