<?xml version="1.0" encoding="UTF-8" standalone="no"?>
<svg
   xmlns:dc="http://purl.org/dc/elements/1.1/"
   xmlns:cc="http://creativecommons.org/ns#"
   xmlns:rdf="http://www.w3.org/1999/02/22-rdf-syntax-ns#"
   xmlns:svg="http://www.w3.org/2000/svg"
   xmlns="http://www.w3.org/2000/svg"
   xmlns:sodipodi="http://sodipodi.sourceforge.net/DTD/sodipodi-0.dtd"
   xmlns:inkscape="http://www.inkscape.org/namespaces/inkscape"
   width="28.38567mm"
   height="13.353028mm"
   viewBox="0 0 28.38567 13.353028"
   version="1.1"
   id="svg1456"
   inkscape:version="1.0.1 (3bc2e813f5, 2020-09-07)"
   sodipodi:docname="shoe.svg">
  <defs
     id="defs1450" />
  <sodipodi:namedview
     id="base"
     pagecolor="#ffffff"
     bordercolor="#666666"
     borderopacity="1.0"
     inkscape:pageopacity="0.0"
     inkscape:pageshadow="2"
     inkscape:zoom="3.959798"
     inkscape:cx="59.887786"
     inkscape:cy="15.006514"
     inkscape:document-units="mm"
     inkscape:current-layer="layer1"
     inkscape:document-rotation="0"
     showgrid="false"
     inkscape:window-width="1920"
     inkscape:window-height="1017"
     inkscape:window-x="-8"
     inkscape:window-y="-8"
     inkscape:window-maximized="1" />
  <metadata
     id="metadata1453">
    <rdf:RDF>
      <cc:Work
         rdf:about="">
        <dc:format>image/svg+xml</dc:format>
        <dc:type
           rdf:resource="http://purl.org/dc/dcmitype/StillImage" />
        <dc:title></dc:title>
      </cc:Work>
    </rdf:RDF>
  </metadata>
  <g
     inkscape:label="Laag 1"
     inkscape:groupmode="layer"
     id="layer1"
     transform="translate(-90.884546,-177.01991)">
    <path
       id="path1436"
       style="display:inline;fill:#493928;fill-opacity:1;stroke:#493928;stroke-width:0.264583px;stroke-linecap:butt;stroke-linejoin:miter;stroke-opacity:1"
       d="m 91.03465,185.14039 c -0.11069,1.844 0.328,1.9494 0.24679,2.94543 -0.24383,1.13956 0.52097,2.12532 1.72194,1.93734 2.58548,0.0504 5.167239,0.29927 7.75546,0.18996 0.60836,-0.25916 0.87421,-1.31612 1.83572,-1.26124 0.96151,0.0549 1.97213,-0.0574 3.00873,-0.15596 1.75912,-0.44903 3.58879,-0.0629 5.37965,-0.16794 1.78663,-0.20382 5.27744,-0.81142 6.27701,-1.77561 1.96482,-1.56871 2.61338,-4.13049 0.85136,-5.59821 -0.81796,-0.67549 -1.99445,-0.36731 -2.98144,-0.54926 -1.21854,-0.0927 -2.46071,-0.0356 -3.61909,-0.48723 -1.32437,-0.34974 -2.65832,-0.65487 -3.95001,-1.10063 -1.08451,-0.32845 -2.43268,-0.43043 -3.17349,-1.35659 -0.53436,-1.02556 -1.87455,-0.34249 -2.79318,-0.45989 -3.226781,0.0505 -6.45276,-0.14643 -9.67896,-0.1483 -0.87744,2.5089 -0.7698,6.14413 -0.88049,7.98813 z"
       sodipodi:nodetypes="zccczccccccccccz" />
  </g>
</svg>
