<?xml version="1.0" encoding="UTF-8" standalone="no"?>
<svg
   xmlns:dc="http://purl.org/dc/elements/1.1/"
   xmlns:cc="http://creativecommons.org/ns#"
   xmlns:rdf="http://www.w3.org/1999/02/22-rdf-syntax-ns#"
   xmlns:svg="http://www.w3.org/2000/svg"
   xmlns="http://www.w3.org/2000/svg"
   xmlns:sodipodi="http://sodipodi.sourceforge.net/DTD/sodipodi-0.dtd"
   xmlns:inkscape="http://www.inkscape.org/namespaces/inkscape"
   width="1920"
   height="1080"
   viewBox="0 0 508 285.75"
   version="1.1"
   id="svg20"
   inkscape:version="1.0.1 (3bc2e813f5, 2020-09-07)"
   sodipodi:docname="trees1.svg">
  <defs
     id="defs14" />
  <sodipodi:namedview
     id="base"
     pagecolor="#ffffff"
     bordercolor="#666666"
     borderopacity="1.0"
     inkscape:pageopacity="0.0"
     inkscape:pageshadow="2"
     inkscape:zoom="0.5"
     inkscape:cx="988.84415"
     inkscape:cy="570.53736"
     inkscape:document-units="mm"
     inkscape:current-layer="layer1"
     inkscape:document-rotation="0"
     showgrid="false"
     units="px"
     inkscape:window-width="1920"
     inkscape:window-height="1017"
     inkscape:window-x="1912"
     inkscape:window-y="-7"
     inkscape:window-maximized="1" />
  <metadata
     id="metadata17">
    <rdf:RDF>
      <cc:Work
         rdf:about="">
        <dc:format>image/svg+xml</dc:format>
        <dc:type
           rdf:resource="http://purl.org/dc/dcmitype/StillImage" />
        <dc:title></dc:title>
      </cc:Work>
    </rdf:RDF>
  </metadata>
  <g
     inkscape:label="Laag 1"
     inkscape:groupmode="layer"
     id="layer1">
    <path
       id="path58"
       style="fill:#008047;stroke:#008047;stroke-width:0.265;stroke-linecap:butt;stroke-linejoin:miter;stroke-opacity:1;stroke-miterlimit:4;stroke-dasharray:none;fill-opacity:1"
       d="m 3.2462061,123.27814 c 1.3564928,0.38078 2.9492843,-0.0473 4.2048315,-0.571 1.1751081,-0.36195 1.7843997,-1.4469 2.2671338,-2.47772 0.6990596,-0.86497 1.4422156,-1.88518 2.5951166,-2.19137 0.837249,-0.0681 1.698648,0.18104 2.647768,-0.0271 1.312708,-0.19935 2.415892,-1.13603 2.770437,-2.41115 0.389691,-1.02805 1.227072,-1.73478 2.145857,-2.29745 1.364922,-0.62599 2.867269,0.0546 4.269293,0.16923 1.222328,0.16553 2.37923,0.51962 3.549162,0.75273 1.173842,0.55484 2.745058,2.64677 0.601355,2.90649 -0.194224,2.309 4.443885,0.63069 3.474501,3.34075 2.78282,0.54502 2.204449,2.28674 -0.06681,2.706 0.292959,1.22601 2.384586,1.4397 3.407689,1.10245 -0.506864,-1.36677 0.526181,-2.44463 1.870897,-2.60582 1.466297,-0.32582 1.771584,-2.67045 3.507927,-1.73725 1.011449,0.38307 2.452142,-0.64056 2.706122,1.16927 0.840988,1.71226 2.680391,1.27318 4.025914,0.38957 2.381096,0.0873 5.389611,0.97961 7.488651,-0.0946 0.400157,-1.47845 2.289016,-2.91492 3.614375,-1.60617 1.111194,1.05349 -1.066979,3.32942 1.228416,2.59854 4.004321,-2.8546 7.303489,-0.52155 11.410188,-0.49621 0.894035,-1.5243 3.258179,-6.78852 4.441228,-2.83482 0.41203,4.22523 1.595189,-1.78513 3.590773,2.55135 2.682073,0.45077 5.335569,2.03223 7.937502,0.99214 1.656658,-0.15528 0.955674,-3.95656 3.023812,-2.92928 0.0425,1.8692 2.020636,3.18091 3.449033,2.31516 0.66848,-0.5661 1.941121,-2.0162 0.755956,-2.78773 -2.418625,-1.78641 1.92445,-2.13713 2.693061,-3.44901 -0.530481,-1.80604 -1.344149,-3.54579 1.181165,-4.11042 0.919265,-0.27683 2.36939,-1.42232 0.897505,-1.99802 0.243724,-1.19823 1.376885,-3.76348 3.449225,-3.71904 0.24954,3.00139 2.71086,2.81723 4.72482,4.25224 -3.41047,1.97208 1.32041,2.25983 2.17324,4.39396 0.20042,2.33632 1.35102,4.41085 1.98426,6.56731 1.69446,3.69592 4.90987,5.50113 8.97699,5.19705 4.51442,-0.63382 9.11722,7.99889 14.31592,3.21314 1.46318,-3.34348 2.52137,3.85798 5.14259,0.914 1.33135,4.03694 6.59361,0.22948 7.99211,3.05477 3.96927,0.0707 6.61372,1.6553 10.11086,-0.56696 3.48639,3.75386 7.20864,1.49111 9.92187,-0.47248 1.65506,3.54617 5.21887,2.49185 7.84303,3.40181 3.37812,1.88585 3.41171,1.10708 5.95315,0.75594 -0.24911,3.27631 3.6045,3.29982 5.29169,5.76415 1.45614,0.77482 2.3749,4.55825 3.3073,-0.0945 1.34829,-1.38688 2.4185,-1.3278 2.29153,-3.44908 1.56961,-1.83525 3.1006,-1.199 4.70103,0.16534 1.68529,0.28342 0.82423,3.63029 2.36226,3.25992 1.00566,-1.90181 -0.0711,-4.57459 1.93707,-5.95308 3.00761,-1.94859 1.10312,3.23731 3.4491,1.32295 1.10146,-1.2928 -1.18759,-2.07399 -0.6613,-3.11829 1.69569,-0.35312 4.15528,-1.10261 2.36225,-3.04714 -0.98487,-1.51857 1.94448,-1.95231 2.7747,-2.61463 0.78262,-1.17306 -0.64978,-3.89287 1.60357,-4.10923 2.30486,0.57536 2.21638,4.13091 4.24278,5.17825 0.6937,1.36611 2.59724,2.08528 3.441,2.77278 -2.02611,0.99575 -0.64409,0.57486 0.30068,1.98767 1.17926,1.0929 -0.96393,0.98061 -0.31706,1.85439 0.25528,1.21638 1.04466,2.27928 2.43887,2.13824 1.63252,-0.64543 0.99158,-3.27376 2.88974,-3.62472 1.93429,0.15688 0.67156,3.10928 2.45863,3.3858 3.07079,1.62374 6.35776,0.51608 9.49707,-0.10888 3.7871,-0.011 7.79726,1.37241 11.39709,-0.43728 2.07655,-1.33403 5.65742,0.39072 6.01357,-3.34085 1.16755,-2.43925 -2.27811,-5.98055 1.87088,-6.28082 0.80395,-0.44543 1.99194,-0.18786 2.47214,-1.13584 2.21771,-0.86884 3.94206,-3.20319 0.75224,-3.95132 -1.43753,-0.32558 -2.17454,-3.01613 -0.95265,-3.79942 2.37774,0.45145 3.06909,-0.98044 2.78019,-2.94918 1.63526,-0.14942 -0.47852,-2.92032 1.56292,-3.13113 0.8489,-1.28671 1.79625,-1.67352 2.07134,-3.1404 2.26543,-0.80348 2.62035,1.94578 3.27401,3.20723 -0.52612,2.36349 2.14407,3.02251 3.47444,0.93536 1.6403,-2.40503 4.1516,0.40757 6.08035,1.20271 1.83153,-1.6645 2.67007,0.66286 4.20945,1.6036 0.9104,1.4522 1.94527,1.88255 1.87085,-0.33409 1.50065,-0.92846 1.56368,-2.56131 1.60358,-4.20945 1.75652,-1.46451 5.83523,-2.04173 6.1472,1.0691 -0.3773,2.55925 2.24077,2.61244 3.51077,3.1913 -0.53823,2.76889 1.5781,1.02057 1.56733,-0.45177 2.66686,-2.97605 3.10354,3.79708 4.85112,2.25287 0.28095,-1.84764 1.28554,-5.71703 5.00176,-2.26695 3.94898,4.24553 2.80411,-1.14845 5.44866,-0.92162 2.01135,-2.3092 3.27686,-4.58266 3.08313,-7.4671 1.24275,-2.19815 3.34196,-3.48014 5.06852,-5.42861 1.74713,-2.12944 4.21695,2.58723 4.55849,3.59952 1.5698,1.02494 2.42199,2.12821 3.12544,3.68361 -2.26738,4.87569 6.68295,2.88053 9.5411,3.41683 5.30817,0.35249 6.41831,-5.59841 9.43517,-8.0941 2.1809,-0.41715 3.00324,4.4879 5.87991,2.73946 2.39083,0.45448 -1.55821,-2.94895 1.33645,-3.60807 1.66154,-0.39499 1.18131,-2.35001 2.53751,-2.88005 -0.41352,-2.029663 1.74354,-2.480254 2.60739,-4.068933 0.76079,-0.938744 2.64161,-3.865427 3.14035,-0.801822 2.80799,1.371297 1.12124,6.082795 3.56034,2.004203 0.0693,-1.621319 1.16142,-3.10946 3.45539,-3.273759 2.08434,0.558975 3.5704,1.751934 3.64146,3.173834 -0.78807,2.338157 3.99748,3.068407 5.82078,2.534967 2.19824,0.45993 4.59054,-0.37555 6.66181,-0.11819 1.23983,1.27101 2.8033,1.55901 4.37047,2.29155 2.70266,0.0786 4.652,1.92357 6.59087,3.56726 3.06371,-0.62891 4.46912,-0.83793 5.71696,2.26786 2.57307,-0.40849 1.93569,3.87447 4.6774,3.5437 1.83007,2.35241 4.32113,-0.26659 6.37837,0.80318 -0.625,2.47573 3.36985,2.80676 1.5591,0.33067 0.17151,-1.89944 2.68375,-5.1241 4.06327,-1.79524 1.88762,3.21557 7.07772,1.44555 10.44897,2.98084 4.94703,0.19317 11.05138,3.35735 14.0375,-1.67339 4.35053,-0.82194 8.59829,6.92825 12.48782,1.97427 0.898,-4.55069 3.59765,-9.59688 6.08742,-2.77608 1.35276,5.07408 5.99912,5.61181 7.88445,2.00452 3.75744,4.66467 4.55026,-2.9272 4.27631,-4.40995 -0.18144,-3.21549 6.58805,-1.7595 5.34539,0.93544 0.69524,0.94068 -1.77033,5.39493 1.63023,3.83521 0.37056,3.92486 5.59765,2.97447 8.79328,1.91109 4.20326,2.2484 10.41524,3.44645 13.99031,-0.2428 1.76647,-2.69859 4.98347,0.50228 5.17257,0.83977 l 0.10955,168.58725 -507.91110073,-0.17762 0.06970891,-161.1031 c 1.29649662,-0.007 2.00210342,-1.32451 3.11283792,-1.28851 z"
       sodipodi:nodetypes="cccccccccccccccccccccccccccccccccccccccccccccccccccccccccccccccccccccccccccccccccccccccccccccccccccccccccccccccccccccccc" />
  </g>
</svg>
