<?xml version="1.0" encoding="UTF-8" standalone="no"?>
<svg
   xmlns:dc="http://purl.org/dc/elements/1.1/"
   xmlns:cc="http://creativecommons.org/ns#"
   xmlns:rdf="http://www.w3.org/1999/02/22-rdf-syntax-ns#"
   xmlns:svg="http://www.w3.org/2000/svg"
   xmlns="http://www.w3.org/2000/svg"
   xmlns:sodipodi="http://sodipodi.sourceforge.net/DTD/sodipodi-0.dtd"
   xmlns:inkscape="http://www.inkscape.org/namespaces/inkscape"
   width="1920"
   height="1080"
   viewBox="0 0 508 285.75"
   version="1.1"
   id="svg20"
   inkscape:version="1.0.1 (3bc2e813f5, 2020-09-07)"
   sodipodi:docname="trees2.svg">
  <defs
     id="defs14" />
  <sodipodi:namedview
     id="base"
     pagecolor="#ffffff"
     bordercolor="#666666"
     borderopacity="1.0"
     inkscape:pageopacity="0.0"
     inkscape:pageshadow="2"
     inkscape:zoom="0.5"
     inkscape:cx="1085.0316"
     inkscape:cy="592.92755"
     inkscape:document-units="mm"
     inkscape:current-layer="layer1"
     inkscape:document-rotation="0"
     showgrid="false"
     units="px"
     inkscape:window-width="1920"
     inkscape:window-height="1017"
     inkscape:window-x="1912"
     inkscape:window-y="-7"
     inkscape:window-maximized="1"
     showguides="false" />
  <metadata
     id="metadata17">
    <rdf:RDF>
      <cc:Work
         rdf:about="">
        <dc:format>image/svg+xml</dc:format>
        <dc:type
           rdf:resource="http://purl.org/dc/dcmitype/StillImage" />
        <dc:title></dc:title>
      </cc:Work>
    </rdf:RDF>
  </metadata>
  <g
     inkscape:label="Laag 1"
     inkscape:groupmode="layer"
     id="layer1"
     style="opacity:1">
    <path
       id="path32"
       style="fill:#003c00;stroke:#003c00;stroke-width:0.264583px;stroke-linecap:butt;stroke-linejoin:miter;stroke-opacity:1;fill-opacity:1"
       d="m 178.85739,137.31787 c -4.86727,0.22013 -4.01961,3.51093 -0.32983,3.77096 2.90854,1.23028 -3.51281,4.34542 0.33074,5.62236 1.09453,1.02013 -0.85999,2.03787 0.59531,3.2411 -2.96305,3.42222 2.68823,2.30273 1.71975,3.96879 -3.9133,1.32496 1.20971,3.16675 1.65354,4.43155 -1.47707,4.29731 2.40776,0.43941 4.69644,0.46356 1.6618,-0.10952 3.30508,1.07252 3.63792,2.84442 2.62764,0.59204 5.19582,-1.7764 5.15928,-3.90252 1.76624,-1.9997 5.57514,-4.66482 7.80522,-2.05038 2.88844,1.65795 4.01047,-4.2837 6.28376,-0.46301 0.4227,2.72795 4.04133,4.82287 6.08533,2.44741 1.83108,-1.46904 -0.79319,-4.98038 1.45509,-5.027 4.06515,4.03021 1.43427,-2.79955 5.55621,-1.852 -1.55919,-1.68284 0.10068,-4.05303 -2.18277,-3.90243 -1.55712,-2.14928 3.45407,-2.87431 5.09315,-3.83634 1.01285,-2.48394 -6.45351,-4.40458 -0.52916,-5.68842 0.68668,-3.01898 3.43881,-1.5334 4.49775,-5.09324 4.35842,-3.69419 2.37169,3.97559 5.68851,4.16718 2.98223,0.68664 -0.20767,-3.66966 2.97651,-4.49801 1.40749,-3.86823 5.58655,-1.75443 6.87903,0.19831 -1.97249,5.71938 2.60745,3.21804 5.15932,1.85218 0.71033,-2.45353 1.87469,-4.85543 4.43168,-5.95295 -0.0394,-2.70639 3.50935,-4.00643 4.16827,-0.53031 -0.49164,4.20177 4.83627,0.11741 2.77804,-1.91818 2.24334,-1.75244 0.30211,-3.62886 3.37348,-4.63027 0.5235,-1.44871 1.46719,-3.41224 3.37336,-4.96089 3.3418,-0.7308 1.23591,4.98133 4.49792,5.42387 -0.2972,2.49938 4.03205,3.20473 2.64578,5.29172 0.67573,2.92991 4.21262,-1.84696 4.16709,2.84419 1.70448,7.15605 3.36459,-3.33313 7.47443,-0.72747 1.41336,2.09892 2.54649,3.9137 3.50555,6.08528 2.41403,0.23534 3.18862,-3.26979 5.35772,-5.02701 1.80827,-1.74632 3.56201,-3.08296 6.41612,-4.16706 4.53421,-1.19902 3.07973,9.47233 5.42391,1.98437 3.37275,0.29216 6.40641,-1.86589 9.32733,-1.58746 4.11194,6.74789 3.07085,-1.38466 7.40824,-1.5875 3.64933,0.85192 6.88346,-3.32037 9.4588,-2.05042 3.28823,-0.40845 5.63712,-1.77944 8.9956,0.26468 2.19687,0.22626 6.82433,1.6778 7.93745,-1.32297 7.21948,1.86529 -2.34737,-3.99061 4.43173,-4.89479 0.98496,-2.48383 5.46387,-6.77455 7.27591,-4.89476 -1.37273,4.63484 3.43014,4.18761 4.36559,0.46303 -0.68111,-5.13957 7.65084,-7.95871 4.82864,-11.44323 2.92874,0.29773 6.55375,-7.766255 7.27659,-1.984619 2.57543,2.399559 0.93894,8.463679 5.09319,9.128089 0.82665,5.3681 5.88821,0.38276 6.28381,4.96085 1.85499,2.61162 4.40864,4.28328 5.42381,7.40839 -0.31341,3.95196 5.72312,5.60358 8.9957,3.63803 3.76834,-0.2084 1.75718,-5.3045 5.15929,-6.74687 0.34165,-2.19931 5.58862,-1.54888 3.83646,-3.50555 -2.00229,-3.72206 3.91098,-4.29228 3.77021,-0.66147 2.05943,0.50052 0.17694,-4.71283 4.49782,-3.1088 4.4451,1.04032 6.69466,-3.40062 10.71637,-0.26471 2.77276,1.49513 7.05678,2.35946 9.06189,3.93562 3.50892,2.84461 0.45867,-1.23391 3.24119,-2.41423 -0.51405,-2.76296 4.90107,-1.2023 2.24901,-4.29929 4.61021,-1.69875 2.48595,-3.86101 4.63034,-7.672872 4.05634,1.173112 4.8057,-6.39676 8.53272,-1.521358 2.72279,3.34299 -4.59204,5.84292 1.25673,7.54059 -0.54471,2.1275 -0.89337,3.52951 0.72756,5.55616 0.68646,4.61288 1.3837,0.14986 5.0271,0.72769 3.38439,-1.54415 -5.15554,-3.89157 -0.59535,-5.62226 3.31524,-0.35306 3.41307,-2.96765 3.63816,-5.22538 4.05361,-0.916343 0.3594,-5.114824 5.02708,-5.027053 1.80156,-0.957595 2.47755,-7.577286 7.01131,-6.085425 4.06294,2.84164 4.16925,10.011851 10.45106,9.9213 1.33378,5.602288 5.81122,4.638618 8.59892,6.746828 1.66313,1.63275 3.88297,2.79681 5.23791,2.85921 L 508,285.75 H 0 L 0.13678626,127.70304 c 4.39493024,-1.73519 7.68681244,-1.22445 11.64979974,-0.0151 2.398946,-0.9258 6.056356,-3.39469 7.940805,-0.46459 3.121671,1.14202 4.856462,-1.56616 7.587541,0.18396 2.280264,0.0296 4.196375,0.28891 5.879117,-0.97693 3.147225,-1.27877 4.131831,4.02757 5.907467,0.60267 2.261877,1.69692 -0.770594,4.47397 3.086963,2.99341 1.388225,-1.64189 -0.236283,-3.9654 1.900581,-4.65348 -0.201783,-2.01754 -0.874188,-3.84923 1.934745,-3.76546 1.837001,-1.82206 -2.755292,-3.77209 1.410432,-3.81932 3.851252,0.72007 2.584409,-4.56803 6.031932,-3.37973 1.870929,3.18182 -2.391603,5.85726 1.163704,7.01193 2.367441,1.83347 0.212618,5.35096 0.748363,8.04474 -1.932235,2.18394 3.225587,2.82959 2.825361,0.74207 -2.922933,-0.57662 -2.423413,-4.85015 0.916404,-3.92268 0.588864,-0.76125 -1.645437,-1.95785 -1.416499,-3.00412 1.989542,-1.19219 3.438873,-2.28664 2.539034,-4.66644 1.510293,-0.47429 3.8452,-0.90711 2.286061,-2.46893 1.156367,-2.70619 6.212831,-0.90982 4.074947,-4.07899 2.435051,-1.62974 6.889397,-3.2181 6.500427,1.62774 2.668528,3.56531 -0.141149,-2.29019 2.854004,-1.72124 1.567374,-2.8637 3.239718,-0.92292 3.74135,0.72171 1.671261,0.33582 1.887461,2.48942 3.180925,3.11352 1.066266,1.41487 1.011623,3.98441 3.652931,4.82545 -1.316022,1.10352 -2.511961,2.12686 0.930744,1.81599 0.77697,-1.75903 1.706293,-4.08506 3.835318,-2.71272 0.617158,-3.39956 4.02243,1.33704 3.1805,2.89992 1.722229,0.8046 0.613921,3.8118 2.806332,4.02237 -2.735057,0.96068 -2.162695,3.92606 -0.280629,5.42557 2.020315,1.35428 4.614984,-0.65733 5.331984,-2.52569 0.52074,-1.88377 2.1287,-3.62185 4.11602,-3.08681 1.93673,0.23632 0.0878,3.85404 2.47887,3.13389 -1.62176,-2.56071 3.35731,-2.56707 1.49664,-4.86415 0.21437,-1.38604 0.98958,-2.83225 2.24495,-3.60141 0.71994,-0.71078 0.72433,-3.5445 3.22735,-3.97553 0.47193,-1.93394 2.67876,-0.17568 2.94664,1.07566 1.46605,1.10923 2.58108,1.73147 3.32084,3.6481 0.34141,0.74432 -0.64232,1.9518 0.94319,2.38146 2.55135,-0.0302 8.20115,1.6338 9.90734,0.8779 0.059,-1.37538 1.34656,-1.51873 1.71957,-0.33073 1.29418,0.71631 4.37246,1.96769 4.31823,-0.56294 -0.41278,-0.43839 0.15494,-0.71059 -0.54793,-1.48757 1.22133,-0.0933 0.60151,-2.22672 1.98433,-1.25678 0.94744,-0.76037 1.97476,-0.50891 2.44739,0.19849 1.71609,-2.07538 3.68951,1.45521 1.5067,1.72333 1.31536,0.95865 0.34608,3.29148 2.59422,2.77459 0.0869,1.75023 1.80881,1.79653 3.0427,1.5875 0.61252,1.27509 1.49283,2.34032 2.84115,1.99339 0.78123,0.9971 1.18357,2.08727 2.05352,2.90135 0.19046,-0.86235 0.87333,-2.31005 1.71966,-2.77813 1.25067,-0.60206 2.9135,-0.28571 3.69965,-1.30767 0.48866,-1.57128 3.11565,0.24351 4.17165,-1.07357 1.32346,0.87299 2.44743,1.25937 3.17496,2.57963 2.02407,0.67498 0.3076,-2.92657 2.18281,-3.0428 -0.01,-1.41605 1.62693,-2.10886 3.04261,-1.78593 0.65717,0.97304 -0.84171,1.9584 1.05829,1.91823 0.20123,1.444 2.14743,1.82894 1.02938,3.46429 0.001,1.14884 2.14032,1.66614 0.69042,2.48854 0.15138,0.84593 2.24251,0.76784 2.77812,1.85185 0.97707,0.41014 -0.0172,1.62113 0.33069,2.31502"
       sodipodi:nodetypes="ccccccccccccccccccccccccccccccccccccccccccccccccccccccccccccccccccccccccccccccccccccccccccccccccccccccccccccccccccccccccccccccccccc" />
  </g>
</svg>
